<svg version="1.2" baseProfile="tiny" xmlns="http://www.w3.org/2000/svg" width="309.93" height="139.716" overflow="inherit"><g fill="#FBB03B"><path d="M162.859 105.134c.182-.21.296-.442.363-.709-.5-.536-.955-.72-1.436-.726-.831-.011-1.837.616-2.869 1.305-1.039.676-2.107 1.411-3.284 1.423h-.02a.354.354 0 0 1-.301-.169 1.8 1.8 0 0 1-.267-.965c.002-.611.252-1.203.564-1.737a8.506 8.506 0 0 1 1.024-1.364l.134-.093c2.326-.899 4.651-1.849 6.252-3.703-.002-.039-.006-.079-.006-.117.001-.308.034-.586.034-.836 0-.161-.018-.307-.054-.448-.701-1.173-2.097-1.908-3.445-2.184-1.986.825-3.899 2.283-5.31 4.079-1.436 1.825-2.352 3.989-2.35 6.173-.001.172.005.345.018.518.073.332.161.648.299.908.614.829 1.55 1.472 2.545 1.669.542-.004 1.097-.027 1.658-.027.147 0 .295.003.441.007 1.059-.353 2.104-.602 3.041-1.085.479-.366 1.043-.646 1.576-.935.557-.3 1.068-.61 1.393-.984zm-5.31-6.871c.251-.388.511-.771.604-1.049a.356.356 0 0 1 .472-.213c.276.119.438.291.569.387.136.098.209.143.397.147h.014a.356.356 0 0 1 .334.484c-.22.561-.577.971-.933 1.323-.357.354-.715.66-.985 1.005a.356.356 0 0 1-.475.077c-.331-.205-.521-.556-.512-.887.012-.481.27-.88.515-1.274zm-13.62 10.133c.408-.148.841-.331 1.324-.415l.181.017c.735.266 1.646.486 2.493.486.424 0 .821-.071 1.184-.196.009-.173.019-.345.019-.52.003-1.875-.478-3.801-.481-5.8 0-.419.026-.842.079-1.267a35.633 35.633 0 0 1-.098-2.698c0-4.07.6-8.187 1.088-12.179-.375-.668-1.23-1.147-2.016-1.591a.695.695 0 0 0-.353.211c-.109.126-.198.318-.269.553-.142.451-.199 1.03-.417 1.539a29.953 29.953 0 0 0-.631 6.111l.001.168-.008.08c-.056.208-.048.523-.213.867.033.306.06.616.06.932 0 .441-.042.89-.162 1.332l-.144.202c-1.434.97-3.262 1.875-4.711 3.005-1.454 1.135-2.489 2.437-2.491 4.236 0 .254.021.518.065.795.155.455.155.876.212 1.231.126.223.145.448.154.619.007.203.019.351.058.43l.006.017c.289.724.798 1.067 1.468 1.343.646.263 1.414.415 2.112.726.111.021.22.032.329.032.372.001.753-.115 1.161-.266zm-2.284-4.977a2.427 2.427 0 0 1 .566-1.59l.006-.007c.311-.345.701-.771 1.154-1.123.452-.35.976-.641 1.576-.643.1 0 .203.008.305.026.168.03.29.175.292.346l.001.211c0 1.545-.227 3.132-.691 4.588a.356.356 0 0 1-.254.236c-.534.131-1.121.245-1.678.273a.364.364 0 0 1-.249-.084 2.983 2.983 0 0 1-1.028-2.233zm114.782 25.225c-2.859 2.937-6.159 5.354-10.395 6.114a.348.348 0 0 1-.295-.081c-.349-.302-.826-.587-1.271-.936-.44-.347-.868-.777-1.036-1.399l.023-.246c.601-1.248.888-2.812 1.233-4.365.348-1.553.754-3.103 1.677-4.326.569-.754 1.354-1.36 2.397-1.739.002-.139.006-.275.006-.415 0-.98-.055-2.021-.055-3.078 0-1.085.057-2.188.298-3.268l.037-.096c1.589-2.815 4.154-4.758 6.222-7.01 1.502-2.992 3.211-5.885 4.217-8.997.268-4.231.136-8.508.345-12.81a1.28 1.28 0 0 0-.273-.029c-.521-.007-1.114.314-1.736.742-.624.422-1.262.93-1.973 1.197-1.229.458-2.427 1.106-3.747 1.546l-.054.013c-1.01.165-2.005.52-3.109.658l-.078.001c-1.145-.11-2.33-.386-3.312-1.131l-.132.117c.448.917 1.167 1.547 2.075 1.958.98.443 2.164.625 3.337.624.846.001 1.684-.095 2.437-.246.367-.132.747-.37 1.165-.596.423-.226.896-.44 1.453-.442.134 0 .257.075.317.194.127.248.176.511.176.761-.002.418-.125.808-.246 1.17-.122.363-.243.703-.282.987l-.019.075c-1.725 4.626-5.872 7.906-10.592 8.957l-.095.009a20.52 20.52 0 0 1-.557-.04l-.117-.031c-.51-.235-1.105-.525-1.507-1.087l-.027-.048c-.52-1.056-.826-2.401-.827-3.743.001-1.105.209-2.209.712-3.134.131-.236.312-.379.453-.497.145-.117.251-.213.295-.289l.044-.164c-.01-.038-.02-.085-.029-.125a8.587 8.587 0 0 0-.698-.037c-3.729-.013-7.371 2.291-11.206 3.189l-.203-.014c-1.741-.649-2.805-1.983-4.062-3.004-.61-.205-1.237-.272-1.888-.272-.981-.001-2.008.15-3.062.152-.27 0-.54-.011-.812-.037l-.038-.006a.613.613 0 0 1-.282-.144l-.146-.146a.975.975 0 0 0-.151-.132c-1.078.193-2.067.695-3.08 1.247-1.027.558-2.08 1.155-3.285 1.454-1.412.974-2.957 1.612-4.242 2.555l-.06.035c-.267.119-.501.1-.667.104a.652.652 0 0 0-.264.042 1.175 1.175 0 0 0-.193.669c-.007.605.338 1.38.548 2.091 1.11 1.636 2.028 3.377 3.37 4.727 2.374 1.566 4.986 2.839 7.753 2.837.495 0 .995-.043 1.503-.129 1.451-.979 3.169-1.146 4.687-1.551.289-.248.492-.591.671-1.003.189-.431.353-.918.618-1.371l.042-.057c1.64-1.806 3.657-3.128 4.847-5.074.085-.272.118-.64.305-1.017a.36.36 0 0 1 .231-.185c.815-.197 1.686-.646 2.659-.728a.356.356 0 0 1 .371.263c.115.43.154.878.154 1.331-.003 1.165-.251 2.384-.253 3.441.058.897.163 1.756.234 2.681.097.184.152.363.198.509.027.09.053.167.083.232.095-.015.198-.043.288-.043a1.29 1.29 0 0 1 .693.188c.191.119.334.273.455.431.196.263.352.527.53.756.204-.035.418-.097.658-.176.28-.093.597-.186.95-.202 1.367-.635 2.771-.98 4.037-1.596l.141-.035c.149-.001.411-.101.694-.224.287-.118.596-.261.958-.265a.973.973 0 0 1 .835.456.354.354 0 0 1 .007.385c-2.631 4.253-4.688 8.927-6.671 13.562a9.92 9.92 0 0 1 .136 1.645c-.007 2.977-1.138 5.774-1.131 8.591 0 .511.037 1.021.123 1.536.329 1.125 1.2 1.997 2.283 2.502l.169.165c.171.351.22.699.292.993.069.296.152.524.316.701.625.618 1.325.8 2.147.804 1.213.006 2.61-.449 3.96-.454.067 0 .135.004.201.005 5.562-3.008 10.302-7.509 13.483-12.923.302-.607.599-1.207.916-1.814.098-.262.242-.513.363-.756.132-.257.22-.501.216-.642a.269.269 0 0 0-.084-.195c-.028-.004-.062-.009-.086-.01-2.48 2.902-4.893 6.309-7.716 9.208zm-33.408-23.05a.351.351 0 0 1-.257.141 5.648 5.648 0 0 1-.468.018c-2.375.003-4.618-1.369-5.459-3.732a3.486 3.486 0 0 1-.208-1.172c.001-1.203.654-2.245 1.555-2.984.903-.741 2.065-1.203 3.192-1.253l.221.066c1.667 1.189 2.542 3.287 2.544 5.326 0 1.291-.356 2.572-1.12 3.59z"/><path d="M208.439 111.377l.175-.03c.786.066 1.554.303 2.296.515.741.212 1.457.396 2.116.396.101 0 .197-.021.296-.03-.188-.847-.669-1.637-1.306-2.392-.721-.858-1.608-1.662-2.346-2.467l-.019-.022c-.518-.667-1.17-1.277-1.827-1.874l-.006-.005c-1.576-1.496-3.698-2.717-5.233-4.376a.353.353 0 0 1-.023-.454c.536-.712 1.375-1.246 2.3-1.373.425-.235.787-.616 1.181-1.021.375-.384.789-.785 1.346-1.038.335-.544.821-.964 1.292-1.356.503-.414.984-.805 1.264-1.22.188-.277.292-.552.293-.884l-.005-.089c-.545-.96-1.586-1.607-2.638-2.167l-.014-.007c-.395-.235-1.018-.402-1.702-.498a15.445 15.445 0 0 0-2.099-.128c-.555 0-1.051.021-1.408.043-.357.021-.57.042-.571.042l-.043.002-.077-.001c-.262 0-.512.034-.792.127h-.002c-.096.03-.204.085-.339.146l-.002.002-.062.027c-.214.107-.41.239-.586.39l-.072.048c-.574.284-1.145.488-1.537.817l-.073.047c-1.832.88-3.608 1.973-5.517 2.831a1.18 1.18 0 0 0-.128.355c.021.087.039.153.056.241l-.015.176c-.087.243-.227.419-.325.576-.103.155-.149.276-.146.332l.008.021c.066.019.131.042.206.042.216.002.486-.079.791-.178.304-.097.643-.211 1.026-.212.151 0 .309.019.466.066a.356.356 0 0 1 .246.413c-.613 2.936-1.648 6.097-1.646 9.074.001 1.543.279 3.028 1.017 4.43l.047.019.163.027.063-.081a2.48 2.48 0 0 0 .029-.304l-.002-.036v-.002a.364.364 0 0 1 .078-.335c.817-.908 1.219-2.084 1.546-3.354.329-1.268.58-2.617 1.167-3.834a.358.358 0 0 1 .456-.173c.785.324 1.382.921 1.945 1.517.563.6 1.099 1.206 1.705 1.605l.04.03c1.806 1.61 3.108 3.709 5.013 4.93l.086.077c.236.3.605.522 1.005.728l.097.005c.26 0 .51-.051.746-.156zm-8.142-13.475a3.237 3.237 0 0 1-1.573.686.356.356 0 0 1-.305-.111c-.364-.403-.416-.921-.42-1.356 0-.151.008-.295.018-.425a.356.356 0 0 1 .281-.321c.239-.049.536-.181.856-.312.322-.129.672-.261 1.062-.264.283-.002.59.083.854.288a.355.355 0 0 1 .138.329c-.085.609-.453 1.116-.911 1.486zm101.266-66.28c.508.194.997.505 1.478.758.478.255.938.441 1.335.438.065 0 .128-.023.193-.033.022-.376.04-.753.04-1.127.005-6.906-3.698-13.468-7.74-19.028a1.415 1.415 0 0 0-.324-.045c-.057 0-.113.013-.172.018a8.16 8.16 0 0 0-.051.892c-.001.799.086 1.635.087 2.495 0 .592-.043 1.198-.191 1.807l-.003.01c-.303 1.103-.834 2.182-1.602 3.047-.767.864-1.781 1.512-3.02 1.713a.36.36 0 0 1-.283-.076c-2.233-1.837-5.023-2.255-7.931-2.255-1.72 0-3.468.146-5.143.217-.665.206-1.336.271-1.997.271-1.159-.001-2.298-.189-3.371-.188-.775 0-1.51.095-2.209.403a.352.352 0 0 1-.296-.004c-.352-.169-.678-.314-.961-.311l-.041.003a1.233 1.233 0 0 0-.33.323c-.135.17-.277.386-.501.572l-.173.076c-1.581.238-3.177.126-4.707.227h-.043c-.698-.041-1.284-.309-1.827-.551-.49-.221-.947-.414-1.422-.477-.171.202-.279.5-.334.826a.355.355 0 0 1-.144.229c-.332.23-.553.647-.869 1.097l-.099.093c-1.183.753-2.465.997-3.754.996-2.466-.006-5.008-.857-7.286-.851-1.663.006-3.148.418-4.48 1.896l-.103.08c-.05.025-.089.069-.151.192-.061.118-.118.295-.265.479a.886.886 0 0 1-.433.294l-.246-.013c-1.395-.601-2.797-.814-4.222-.814-3.438-.006-6.986 1.276-10.592 1.283-.7 0-1.401-.05-2.104-.168l-.054-.014c-.838-.281-1.584-.668-2.34-.991-3.469.409-6.991 1.005-10.328 1.861.178.031.367.051.573.05.567.001 1.203-.103 1.79-.129h.032c1.642.077 3.292.106 4.948.106 4.593 0 9.233-.22 13.867-.22 1.435 0 2.868.021 4.3.077l.197.069a8.002 8.002 0 0 0 4.732 1.562c.969 0 1.938-.18 2.856-.553a.358.358 0 0 1 .278.005c2.068.927 4.55 1.024 6.972 1.359 2.387.333 4.75.925 6.521 2.912.358.186.689.26 1.02.261.64.003 1.299-.287 1.992-.624.692-.332 1.412-.71 2.224-.776l.223.059c.327.204.495.556.484.862-.003.311-.111.573-.21.813-.098.229-.188.437-.216.578a38.387 38.387 0 0 0-.041 1.833c0 .972.024 1.95.024 2.92 0 .463-.008.923-.024 1.38.998 1.118 2.185 2.259 2.907 3.787l.017.041c.401 1.216.545 2.466.545 3.723-.004 3.348-1.003 6.771-.998 9.928.004 2.282.501 4.396 2.225 6.324.382.271.84.558 1.173 1.038l.062.217-.006.249c-.002.755.149 1.539.151 2.375 0 .35-.028.71-.11 1.077l-.008.027c-.125.395-.385.647-.575.862-.194.214-.309.377-.332.544.016.35.024.7.024 1.048-.003 5.17-1.625 10.155-2.806 15.106-.786 3.292-1.557 6.601-1.556 9.906 0 1.415.141 2.83.48 4.247l.006.133c-.026.185-.071.389-.069.556l.004.067c.951 2.719 2.979 4.94 5.481 6.438.439.108.824.312 1.18.484.383.188.729.329 1.047.327.081 0 .164-.017.247-.035a.54.54 0 0 0 .166-.364l-.013-.085c-1.16-1.891-1.393-4.004-1.393-6.106 0-1.501.117-3.004.116-4.438 0-.15-.001-.301-.004-.45l.011-.091c1.588-6.505 3.109-13.068 5.023-19.47 1.339-6.735 3.117-13.497 3.385-20.363l.007-.06c.243-1.139.341-2.293.341-3.459.007-4.75-1.649-9.694-1.654-14.546-.002-2.574.477-5.133 1.943-7.589l.182-.151c3.404-1.262 7.084-1.432 10.629-1.509l.076.007c1.404.279 2.813.485 4.232.658l.068.015c1.408.465 2.827.85 4.245 1.334l.018.004zm-170.837 60.5a4.05 4.05 0 0 0 .056-.698c.001-.624-.113-1.278-.167-1.972l.001-.067c.037-.326.2-.571.348-.756.129-.16.245-.287.328-.406.034-.521.069-1.051.069-1.572 0-.869-.095-1.709-.413-2.446l-.011-.255c.109-.314.166-.476.162-.589l-.006-.077c-.122-.656-.118-1.254-.276-1.782l-.012-.132a10.7 10.7 0 0 0 .041-.953c.001-1.423-.24-2.911-.242-4.412 0-1.013.117-2.037.507-3.039.13-1.638.937-3.024 1.034-4.452l.034-.128c1.521-3.125 1.434-6.838 1.788-10.353a21.287 21.287 0 0 1-.004-.437c0-.262.003-.521.003-.779.001-.992-.044-1.93-.403-2.771l-.028-.127-.003-.245c.004-2.223.954-4.274 1.471-6.232a.358.358 0 0 1 .227-.245c4.456-1.554 9.096-2.765 13.842-2.766.569 0 1.142.03 1.714.066-.023-.637-.366-1.257-.869-1.861-.512-.619-1.162-1.198-1.681-1.763-.529-.476-1.23-.719-1.933-1.182-.312-.053-.52-.164-.669-.205l-.092-.001c-2.956-.004-5.855 1.157-8.763 1.645a.355.355 0 0 1-.329-.119 1.522 1.522 0 0 1-.363-1.027c.004-.514.169-.975.201-1.343a19.265 19.265 0 0 1-.012-.635c.001-1.364.144-2.722.143-4.053 0-.605-.029-1.205-.111-1.797a.357.357 0 0 1 .114-.314c1.752-1.567 4.117-2.383 6.191-3.21l.147-.024c1.002.045 2.003.064 3.003.064 5.812 0 11.615-.654 17.501-.654.476 0 .953.004 1.43.013 3.095-.276 6.236-.752 9.394-.752 1.614 0 3.231.127 4.848.471.256-.044.503-.045.721-.055.245-.008.447-.038.569-.104a.471.471 0 0 0 .164-.152c.001-.06.004-.12.004-.179.002-1.375-.577-2.773-1.354-3.958l-.05-.118c-.271-1.239-.8-2.591-1.666-3.394a1.56 1.56 0 0 0-.58-.11c-.387-.001-.809.123-1.23.271a.353.353 0 0 1-.286-.023 18.77 18.77 0 0 1-4.763-3.65 6.62 6.62 0 0 0-.864-.063c-2.379-.007-4.716 1.249-7.079 2.022l-.029.008c-2.116.494-4.234.588-6.344.589-1.345 0-2.687-.039-4.024-.039a40.6 40.6 0 0 0-2.901.091c-.474.341-.957.61-1.355.936l-.163.075c-.442.076-.86.15-1.218.305l-.208.022a6.636 6.636 0 0 0-1.255-.114c-1.357-.001-2.746.368-4.164.75-1.417.381-2.862.774-4.348.775h-.046a.356.356 0 0 1-.354-.319c-.257-2.515.018-5.137-.528-7.563a.618.618 0 0 0-.166-.075c-.133-.051-.365-.111-.548-.342l-.057-.108c-.541-1.699-.724-3.54-1.662-4.837a5.841 5.841 0 0 0-.337-.063.954.954 0 0 0-.237.372c-.064.189-.09.427-.09.694-.001.5.092 1.087.094 1.66 0 .179-.017.355-.044.531.075.376.097.75.097 1.111 0 .19-.004.377-.01.561l-.043.16c-.097.171-.111.333-.204.684l-.082.148c-1.464 1.572-1.664 3.812-2.384 5.931a.356.356 0 0 1-.261.232c-6.31 1.349-13.013 1.986-18.472 5.49l-.021.114c-.007.229.155.514.37.799.26.059.52.091.782.091 1.043.003 2.139-.433 3.282-.898 1.144-.461 2.336-.949 3.618-.955l.044.002c1.458.18 2.844.458 4.263.524a.356.356 0 0 1 .292.178c.407.715 1.145 1.25 1.851 1.867.68.595 1.344 1.316 1.472 2.407.207.432.59.769 1.028 1.13.442.37.941.766 1.244 1.382l.035.169c-.151 3.708-.279 7.466-.961 11.143l-.111.199c-.838.755-1.853 1.133-2.805 1.51-.941.369-1.818.737-2.471 1.382-.663 1.156-1.247 2.467-1.316 3.732.036.07.09.153.158.226a.776.776 0 0 0 .193.161c.2.042.398.065.596.065.734.002 1.477-.274 2.256-.591.778-.312 1.589-.664 2.484-.734a.357.357 0 0 1 .383.355c-.008 4.437-.467 8.961-.466 13.423 0 1.203.033 2.402.117 3.593l-.016.131c-.517 1.646-.692 3.335-.692 5.048-.001 2.596.404 5.248.608 7.876v.052a.92.92 0 0 1-.161.456 1.719 1.719 0 0 1-.256.282c-.161.143-.261.244-.286.312a11.447 11.447 0 0 0-.276 2.569c0 .446.021.895.058 1.345l-.002.07c-.489 4.113-1.845 8.038-1.842 12.065 0 .552.026 1.105.083 1.662.203.897.742 1.643 1.433 2.326.665.657 1.458 1.246 2.173 1.845h.006l.083-.004c1.108-.896 2.146-1.992 2.92-3.198.157-.794.23-1.601.23-2.412 0-1.798-.342-3.614-.821-5.321l-.012-.158z"/><path d="M187.362 94.742c.453-1.924.683-4.042 1.654-5.95a.362.362 0 0 1 .236-.184 19.222 19.222 0 0 1 4.327-.513c2.561.001 3.843.204 5.909 1.696 0 0 2.214-.268 2.214-.396.002-3.824-1.727-7.397-3.782-10.59l-.111-.051c-.195.47-.232 1.105-.275 1.808-.059.818-.162 1.739-.84 2.473l-.001.001-.004.005-.001-.001c-.484.539-1.17 1.025-2.003 1.03l-.23-.013-.156-.059c-1.734-1.16-3.737-1.415-5.855-1.414-1.524-.001-3.099.132-4.645.133-.658 0-1.312-.028-1.954-.099-.541.352-1.143.484-1.734.483-1.146-.004-2.295-.422-3.223-.622-.399.494-.794 1.144-1.553 1.498l-.114.029a5.323 5.323 0 0 1-.506.023c-1.692-.009-3.483-.664-5.026-.657-1.097.01-2.019.288-2.823 1.324a.355.355 0 0 1-.397.12c-.999-.342-2.038-.604-3.051-.603-.403 0-.803.049-1.197.143a.853.853 0 0 0-.047.223c.127.126.291.211.529.263.28.06.619.071.955.119l.177.077c1.032.856 2.316 1.195 3.669 1.196.406 0 .818-.031 1.229-.088l.198.029c.951.439 2.022.586 3.124.759 1.099.176 2.231.382 3.271 1.007l.087.074c.294.348.562.682.861.916.12.02.24.036.358.036.625.002 1.26-.27 1.926-.576.666-.301 1.36-.638 2.148-.641.142 0 .286.011.432.036a.353.353 0 0 1 .291.304c.177 1.336.054 2.778.188 4.023.336 2.101.368 4.266.369 6.429 0 .559-.003 1.116-.003 1.672-.001 4.199.146 8.301 2.275 11.843l.085.012a.652.652 0 0 0 .147-.017c1.468-5.664 2.593-11.472 2.862-17.248l.01-.062zM75.965 93.315l.045-.015c.287-.067.576-.094.861-.094 1.182.007 2.324.43 3.294.422.566-.004 1.051-.128 1.521-.521a.78.78 0 0 0 .15-.446c0-.056-.02-.104-.032-.154-2.391-1.186-4.898-2.342-7.148-3.962a1.781 1.781 0 0 0-.4-.048 3.58 3.58 0 0 0-.75.097.804.804 0 0 0-.283.29c-.094.148-.18.343-.3.546l-.104.11c-.491.336-1.001.758-1.572 1.106-.568.346-1.209.624-1.948.624-.112 0-.226-.007-.341-.021l-.075-.017c-1.196-.411-2.211-1.143-3.23-1.747-1.021-.607-2.027-1.087-3.204-1.086h-.046l-.208-.063c-.534-.373-1.005-.75-1.515-.999l-.212-.03c-.226-.002-.472.093-.769.218-.294.12-.637.271-1.06.272l-.05-.001-.035-.003c-3.044-.382-5.746-1.688-8.603-2.177l-.088-.027c-.793-.365-1.469-.888-2.14-1.341-.672-.454-1.333-.839-2.083-.981l-.144-.062c-.423-.316-.765-.658-1.141-.848a19.434 19.434 0 0 0-1.105-.031c-3.035-.002-6.109.618-9.255.628-.35.134-.697.198-1.007.264-.338.07-.631.149-.87.304l-.024.015c-.245.121-.465.422-.833.694l-.13.059c-1.192.264-2.319.744-3.512 1.203a.353.353 0 0 1-.415-.122 1.955 1.955 0 0 1-.369-1.185c.001-.495.137-.973.268-1.427.133-.455.263-.889.291-1.262v.004c.026-.367.057-.768.201-1.175-.01-.085-.02-.169-.02-.248 0-.22.026-.414.035-.591l.003-.034c.28-1.863.482-3.82.569-5.716l.008-.061c.45-2.035.711-4.141 1.275-6.224-.1-2.942-1.075-5.903-1.08-8.985 0-.942.095-1.895.338-2.857-.08-2.196-.136-4.411-.136-6.628 0-3.124.111-6.251.416-9.335a12.746 12.746 0 0 1-.013-.552c.002-3.067 1.107-5.993 2.04-8.737l.009-.023c.868-2.064 1.253-4.382 2.097-6.581l-.004-.113c.001-.579.184-1.098.346-1.585.165-.487.31-.943.309-1.38a1.82 1.82 0 0 0-.03-.292c-.765-.795-1.866-1.371-2.74-2.328l-.069-.115c-.309-.836-.342-1.686-.343-2.505 0-.282.004-.562.004-.837 0-.499-.014-.984-.089-1.448v-.003c-.059-.382-.29-.635-.637-.923-.339-.285-.777-.56-1.074-1.028l-.028-.055a1.161 1.161 0 0 1-.087-.433c.001-.396.218-.693.435-.907.221-.218.466-.387.637-.533l.068-.045c.986-.499 1.962-1.153 3.112-1.504.082-.047.199-.136.329-.239l.111-.059c.428-.136.85-.229 1.244-.343l.188-.157a.607.607 0 0 0 .076-.303l-.027-.18c-.144-.286-.377-.422-.743-.555-.342-.124-.768-.212-1.175-.428a24.262 24.262 0 0 0-1.952-.071c-1.161 0-2.339.054-3.526.054-.218 0-.437-.002-.655-.006-1.998.467-3.959 1.19-6.035 1.527-.316.167-.544.446-.775.802-.237.362-.466.793-.836 1.162l-.101.069c-.167.077-.314.11-.417.138a.625.625 0 0 0-.177.066c-1.34 1.304-2.455 3.156-4.412 3.985-.191.438-.501.742-.781.994-.297.263-.545.491-.695.751l.002.042c-.001.199-.023.378-.022.521a.78.78 0 0 0 .027.231l.087.13.02.018c.11.105.206.132.393.137.237.004.563-.084.934-.088.133 0 .276.014.421.058l.052.021c.608.299.901.835 1.12 1.319.219.492.392.958.672 1.26l.042.058c.03.056.123.133.27.223.142.093.331.19.493.391a.85.85 0 0 1 .182.532l-.027.234-.03.086c-.14.273-.178.595-.178.96 0 .109.003.224.008.338.188.582.54 1.115.935 1.663.398.555.836 1.125 1.147 1.796h.001a.03.03 0 0 0 .004.008l.006.012h-.001c.206.397.247.801.29 1.15.042.359.087.66.22.889.06.104.063.231.008.338-1.59 3.111-1.802 6.633-1.8 10.208 0 1.205.023 2.413.023 3.611 0 .312-.002.625-.006.935l-.001.025a27.466 27.466 0 0 0-.085 2.271c0 2.359.224 4.799.225 7.234 0 1.34-.068 2.679-.283 4.002l-.027.089c-.142.302-.361.477-.509.63-.155.154-.225.256-.237.362-.046.447-.059.903-.059 1.366 0 .536.017 1.078.017 1.626 0 1.363-.11 2.771-.902 4.099.002.066.004.132.004.198-.013 2.497-1.25 4.688-1.398 6.989.033.085.086.124.219.282a.644.644 0 0 1 .127.272l.006.093c-.019.259-.027.518-.027.774-.003 2.587.877 5.087 1.415 7.679l-.016.198c-.069.184-.178.298-.231.365l-.091.164-.002.008-.006.048c-.009.083.072.265.082.552 0 .102-.02.22-.068.334l.002.001c-.843 2.124-.987 4.457-1.883 6.76l-.052.082c-.211.28-.422.486-.556.695-.065.599-.055 1.274-.337 1.953l-.136.161c-.96.607-2.026.835-2.875 1.346-.687.87-1.429 1.788-2 2.758-.583.991-.98 2.026-.98 3.117 0 .181.014.364.037.549.044.083.089.167.118.23.031.068.069.134.11.203.071.044.166.07.307.07.134.001.294-.024.453-.049 1.22-.797 2.591-1.099 3.889-1.432 1.334-.339 2.582-.712 3.58-1.611l.176-.086c.396-.063.855-.283 1.424-.29.14 0 .288.018.437.056v-.001l.012.004h.003v.001c1.084.239 2.083.765 3.059 1.216.981.456 1.933.831 2.897.829.218 0 .439-.026.663-.066a87.26 87.26 0 0 0 .74-3.322.352.352 0 0 1 .201-.252c1.492-.679 3.066-1.024 4.586-1.431 1.521-.404 2.984-.865 4.275-1.738l.234-.059c3.734.374 7.481 1.089 11.193 1.088 1.54 0 3.073-.124 4.6-.441.298-.156.604-.36.949-.542l.079-.03c.542-.135 1.082-.164 1.609-.164.471 0 .932.023 1.377.023l.234-.002.08.007c4.895 1.026 10.275.155 15.182 2.009.567.112 1.096.283 1.614.475.4-.006.799-.011 1.199-.011.417 0 .835.006 1.254.017.385-.168.773-.225 1.13-.27.388-.048.742-.088 1.048-.206zm106.514-46.237c-.028-.231-.146-.415-.347-.614-.184-.181-.43-.354-.669-.544-1.03-.26-1.893-.742-2.804-.945-2.472.003-4.966.028-7.39.227l-.013.001c-1.581.067-3.105.623-4.656 1.181-1.55.554-3.129 1.112-4.83 1.113-.344 0-.693-.023-1.047-.074a.358.358 0 0 1-.287-.242c-.184-.573-.159-1.148-.194-1.661-.031-.509-.112-.928-.385-1.266-.248-.199-.463-.389-.673-.503a3.08 3.08 0 0 0-.632-.066c-.396 0-.812.064-1.234.14-.983.748-2.087 1.454-3.052 2.248-.991.812-1.826 1.709-2.266 2.814a.355.355 0 0 1-.301.223c-.736.058-1.417.013-2.035.179-2.099 1.495-3.974 3.534-5.465 5.747l-.001.018c0 .13.038.254.075.376.288.121.582.185.901.185.62.002 1.314-.199 2.04-.416.728-.214 1.487-.442 2.272-.444.201 0 .404.016.607.052a.356.356 0 0 1 .284.433c-.335 1.404-.809 2.846-1.224 4.232a.355.355 0 0 1-.189.219c-2.223 1.051-4.108 2.893-5.789 4.685l-.002.115c0 .147.011.286.029.411a.834.834 0 0 0 .532.181c.251.002.561-.077.895-.167.333-.088.689-.19 1.069-.192.356-.004.752.11 1.063.419.071.069.11.166.107.265-.017.559-.286.998-.558 1.368-.277.372-.568.697-.728 1.016l-.009.018c-.527.904-.955 1.876-1.436 2.83-.115.491-.344.843-.392 1.163l-.02.071c-.123.304-.321.656-.486 1.018-.167.356-.289.718-.285.95a.42.42 0 0 0 .056.236c.026.04.073.08.142.12.265-.057.521-.09.768-.09 1.33 0 2.307.79 3.083 1.714.742.881 1.351 1.907 1.973 2.675 1.254-.023 2.447-.454 3.648-1.019 1.237-.578 2.474-1.286 3.796-1.756l.015-.004c1.281-.393 2.492-.923 3.706-1.523l.087-.03a2.98 2.98 0 0 1 .587-.049c.116 0 .228.003.332.003h.063l.087.01c.683.165 1.324.409 1.956.579 1.158.271 2.393.215 3.662.334.92-.104 1.838-.149 2.752-.149 3.939.001 7.803.821 11.582 1.243.534-.176 1.018-.126 1.399-.191.905-.668 1.923-1.013 2.924-1.29.963-.265 1.91-.482 2.755-.842.001-.027.004-.055.004-.083.007-1.038-.556-2.204-1.355-2.81l-.101.003c-.577-.002-1.109-.091-1.604-.089-.23 0-.45.018-.667.067l-.134.004a36.147 36.147 0 0 0-5.543-.408c-3.622 0-7.266.472-10.798 1.153l-.071.007c-1.168-.013-2.162-.471-3.1-.948-.938-.481-1.829-.984-2.78-1.178l-.119-.047c-1.361-.875-3.17-1.182-4.602-2.403l-.062-.081a1.08 1.08 0 0 1-.183-.588c0-.242.085-.454.19-.634.106-.182.238-.342.37-.493.265-.296.527-.575.608-.773l.036-.064c.322-.43.464-1.094.934-1.679l.095-.082c1.891-1.104 3.969-1.55 6.053-1.55 1.523 0 3.051.237 4.525.631l.034.011c.498.201.948.481 1.271.47a.627.627 0 0 0 .237-.056c.219-.215.36-.457.447-.745.093-.306.124-.657.123-1.032.001-.562-.07-1.169-.071-1.749l.001-.07c-.225-1.184-1.102-2.185-2.236-2.625a5.99 5.99 0 0 0-1.229-.125c-2.311-.012-4.629 1.241-7.104 1.335a.356.356 0 0 1-.331-.196c-.26-.523-.336-1.098-.336-1.667.001-.866.175-1.742.233-2.463a.361.361 0 0 1 .189-.285c.597-.314 1.231-.422 1.837-.507.606-.083 1.188-.146 1.697-.322l.101-.02c2.663-.105 5.542-.781 8.386-.783 1.773 0 3.543.271 5.221 1.13.152.023.311.035.479.035s.348-.01.528-.019c.652-.609 1.403-1.269 1.993-1.99.622-.759 1.048-1.566 1.047-2.435a2.8 2.8 0 0 0-.057-.553l-.004-.029z"/><path d="M43.656 63.447c-.778 1.443-.988 3.134-.987 4.888 0 1.497.151 3.031.209 4.482.245.608.439 1.314.688 1.963.255.673.572 1.263.997 1.598.285.226.611.357 1.07.359l.121-.005c.604-.542 1.334-.9 1.773-1.359-.012-.397-.293-.81-.547-1.324l-.016-.037a1.038 1.038 0 0 1-.055-.338c.011-.366.131-.607.12-.76l-.003-.051a.354.354 0 0 1 .088-.278c1.169-1.312 1.697-2.998 2.235-4.737.541-1.733 1.093-3.519 2.413-4.947l.21-.11c3.069-.437 6.226-.808 9.365-.808.646 0 1.291.016 1.934.05a.354.354 0 0 1 .272.15c.136.195.189.395.235.559.043.166.08.3.129.39l.041.188a32.837 32.837 0 0 0-.048 1.91c0 1.01.028 2.024.029 3.047 0 .617-.012 1.238-.046 1.862.555 4.356 3.327 7.928 5.405 11.829.098-.006.197-.015.294-.015 1.398.002 2.664.527 3.877 1.025 1.214.5 2.375.973 3.538.97.435 0 .871-.066 1.321-.218.787-.446 1.331-1.342 1.687-2.238v.002c.171-.43.458-.782.679-1.118.228-.335.376-.636.372-.9a.832.832 0 0 0-.059-.295 2.327 2.327 0 0 0-1.038-.955c-.415-.19-.895-.269-1.405-.269-.518 0-1.063.08-1.585.188l-.229-.03c-.379-.188-.605-.505-.757-.806-.153-.303-.251-.604-.362-.836l-.033-.118c-.064-.688-.002-1.275-.182-1.789l-.016-.155c.083-.705.121-1.409.121-2.112.001-3.828-1.099-7.65-1.649-11.511-.781-1.994-.63-4.106-1.346-5.894-.127-.129-.291-.191-.553-.235-.274-.047-.621-.058-.979-.215a.354.354 0 0 1-.202-.249c-.547-2.575-.138-5.21-.539-7.655-.272-1.521-.601-3.061-.825-4.603-.95-3.01-2.356-6.063-4.862-8.093-.309-.135-.572-.321-.812-.469-.262-.166-.487-.267-.675-.263a.64.64 0 0 0-.272.065c-3.793 2.924-7.647 6.083-8.908 10.764l-.017.047c-.234.538-.559.953-.734 1.379l-.099.135c-2.728 2.284-4.609 5.541-7.37 8.031-.851 3.214-.974 6.539-1.983 9.848l-.03.066zM55.9 54.335c.345-.459.693-.896.814-1.271l.002-.006c.199-.559.393-1.125.689-1.688.237-.681.248-1.51.609-2.336a15.118 15.118 0 0 1 .004-2.314c-.126-.252-.272-.504-.4-.789a2.61 2.61 0 0 1-.25-1.079l.012-.238.018-.083c.611-1.737 1.651-3.714 3.136-4.821a.358.358 0 0 1 .392-.021c2.239 1.322 3.574 3.798 3.938 6.275v.106c-.028.17-.075.293-.12.433.265 1.177.354 2.376.355 3.575 0 1.688-.17 3.38-.26 5.026a.356.356 0 0 1-.246.319c-2.59.829-5.421.863-8.048 1.297l-.037.003-.119.004a2.26 2.26 0 0 1-.957-.222.355.355 0 0 1-.196-.242 1.519 1.519 0 0 1-.039-.338c.012-.629.367-1.129.703-1.59zm64.02 34.98c.027-.152.045-.3.045-.429 0-.111-.009-.212-.021-.308-2.069-6.118-4.111-12.281-6.274-18.304l-.012-.042c-.866-3.791-1.341-7.707-1.341-11.599 0-2.018.127-4.03.396-6.014l.005-.027c.403-1.864.729-3.706 1.145-5.589l.017-.054c.23-.58.408-1.188.507-1.792l.011-.049c.166-.529.44-1.065.664-1.592.227-.525.398-1.037.396-1.469a1.39 1.39 0 0 0-.154-.619c-.394-.038-.902.023-1.452-.166a.358.358 0 0 1-.226-.256c-.185-.83-.219-1.692-.219-2.548 0-.564.015-1.127.015-1.677.001-.992-.058-1.934-.317-2.768a1.104 1.104 0 0 0-.384-.061c-.2 0-.432.029-.667.046-2.375 1.003-5.004 1.553-6.637 3.405-.395 3.268-1.294 6.576-1.479 9.819-.122 2.092-.747 5.201-1.767 7.455a.355.355 0 0 1-.412.197c-.723-.184-1.239-.664-1.677-1.164-.434-.497-.808-1.028-1.214-1.41-3.36-2.056-5.796-5.01-8.234-7.888l-.055-.088c-.136-.313-.266-.596-.437-.842l-.063-.175a10.803 10.803 0 0 1-.031-.879c0-.458.017-.909.017-1.348 0-.487-.026-.959-.11-1.415l-.092-.077c-.06-.025-.151-.04-.259-.04s-.229.021-.346.041c-1.285 1.563-2.921 2.781-3.981 4.354.25 1.016.342 2.037.342 3.056-.002 2.507-.52 5.004-.518 7.426 0 .799.056 1.589.201 2.37l-.007.16c-.128.458-.212.93-.211 1.386 0 .203.016.403.053.598l-.002.136c-.207 1.007-.303 2.079-.326 3.118l-.005.053c-.583 3.353-.938 6.937-.938 10.471 0 .435.007.868.018 1.301.251.621.734 1.233 1.332 1.682.583.442 1.265.714 1.912.738 1.129-1.225 2.332-2.538 3.282-3.891-.027-.283-.167-.501-.406-.68a1.734 1.734 0 0 0-.996-.308 1.45 1.45 0 0 0-.548.1.357.357 0 0 1-.358-.054c-.385-.311-.515-.743-.564-1.112-.051-.375-.045-.726-.105-.989l-.007-.104c.376-4.559 1.651-9.003 2.328-13.459v.004a4.92 4.92 0 0 0 .043-.695c0-.658-.087-1.398-.088-2.124.001-.805.107-1.627.655-2.276a.357.357 0 0 1 .382-.108c.688.224 1.109.733 1.45 1.222.342.493.629.983.993 1.293l.068.079c.987 1.566 2.451 2.934 3.417 4.699.67.539 1.01 1.233 1.531 1.639l.093.113c4.268 8.206 8.264 17.11 9.008 26.553 1.707.392 3.663.685 5.442 1.337 1.789.652 3.412 1.714 4.32 3.623.518-.025 1.035-.272 1.528-.652.487-.38.937-.876 1.324-1.333zm68.031-37.625c-.805 2.228-1.963 4.297-2.758 6.466a29.415 29.415 0 0 0-.054 1.538c0 .521.026 1.035.098 1.534.532 1.433 1.434 2.694 2.119 4.161 2.338 2.034 5.384 2.762 8.506 2.763 2.08 0 4.186-.324 6.109-.787a.358.358 0 0 1 .291.056.357.357 0 0 1 .146.258c.191 2.14 1.279 3.888 2.741 5.47 1.435 1.55 3.218 2.918 4.791 4.295.134.02.268.038.396.038.105 0 .198-.022.293-.04.636-1.564 2.039-2.421 3.021-3.34l.01-.057c.003-.1-.049-.243-.132-.429-.078-.186-.189-.411-.192-.707a1.02 1.02 0 0 1 .118-.476l.186-.167c1.421-.557 2.932-.681 4.322-1.006.122-.36.167-.781.166-1.262 0-.253-.007-.517-.007-.787 0-.516.027-1.057.191-1.587a5.706 5.706 0 0 1-.007-.291c0-.203.006-.398.006-.586 0-.089-.002-.176-.005-.261l.008-.093c.159-.718.271-1.441.271-2.148 0-.146-.005-.293-.015-.438l.021-.15c1.691-4.509 2.16-9.357 2.16-14.226 0-.543-.007-1.087-.017-1.631l.01-.09c.089-.354.104-.811.293-1.269a.358.358 0 0 1 .236-.206c.37-.099.759-.21 1.077-.374.31-.161.535-.36.669-.637l.013-.131c.007-.335-.198-.755-.423-1.143-1.011-1.018-2.349-1.719-3.569-2.653-.599-.021-1.2-.033-1.803-.032a58.688 58.688 0 0 0-11.149 1.088 5.504 5.504 0 0 0-2.252 1.448l-.104.076c-.258.122-.564.231-.845.363-.279.128-.522.282-.641.428a.428.428 0 0 0-.111.289c0 .015.009.039.011.056.303.085.645.12 1.029.12.246 0 .503-.008.767-.008.611.001 1.271.04 1.884.372l.025.015c1.313.869 2.313 2.327 2.523 3.938l-.006.124c-.203.887-.56 1.719-.722 2.521l-.059.136c-1.061 1.471-2.1 3.258-3.411 4.736-1.308 1.475-2.924 2.657-5.1 2.819l-.025.001h-.113c-1.338-.001-2.748-.098-4.052-.656l-.051-.027c-.829-.538-1.135-1.48-1.248-2.296l.013-.148c.008-.027.031-.148.051-.277.021-.131.042-.28.064-.409l.029-.089c1.182-2.488 1.762-5.312 1.762-8.109 0-1.235-.118-2.465-.343-3.658-.188-.161-.355-.341-.514-.511-.191-.209-.378-.394-.544-.491a.588.588 0 0 0-.304-.094.71.71 0 0 0-.172.038c-2.416 2.534-4.687 5.335-5.679 8.613l.001.017zm35.96 18.851c2.348.886 4.774 1.83 7.057 2.948l.018.009c3.127 1.765 5.033 4.701 6.694 7.607.687.686 1.203 1.419 1.896 1.938l.042.005c.13 0 .251-.059.409-.196.155-.135.316-.332.504-.518l.042-.035c3.15-2.246 6.36-3.063 9.927-4.063l.101-.014.369.003c1.63 0 3.248-.148 4.763-.613 1.226-.7 2.668-1.322 3.829-2.136 1.174-.825 2.033-1.8 2.205-3.249-.182-1.876 0-3.667-.592-5.338-.265-.55-.454-1.071-.762-1.496l-.018-.028c-.123-.213-.329-.416-.555-.65a2.641 2.641 0 0 1-.534-.782c-3.36-2.995-5.636-6.816-8.912-9.639-2.632-1.94-5.988-2.777-8.624-5.06l-.094-.13c-.085-.202-.232-.401-.4-.625-.164-.225-.35-.477-.465-.803l-.02-.097-.003-.101c.007-.681.356-1.215.566-1.666l.099-.125c.892-.702 2.086-1.343 3.275-1.35.83-.009 1.658.374 2.22 1.231.54.158 1.067.34 1.582.514l.115.066c.438.378.643.87.854 1.272.208.405.404.704.714.856.521.192 1.07.265 1.643.265.959.001 1.971-.206 2.95-.361l.089-.003c.61.059 1.222.081 1.834.081.817 0 1.64-.041 2.468-.092.556-.372 1.105-.716 1.395-1.191.003-.094.007-.187.007-.28.006-3.081-1.718-6.087-3.472-8.677-.062-.021-.124-.042-.202-.042a1.436 1.436 0 0 0-.397.072 1.063 1.063 0 0 0-.104.444c-.004.365.176.798.39 1.271.207.473.448.985.451 1.57 0 .249-.049.51-.163.764a.358.358 0 0 1-.293.208c-1.375.12-2.731.639-4.073 1.127a.35.35 0 0 1-.273-.013c-.917-.435-1.548-1.158-2.114-1.878-.534-.684-1.021-1.365-1.598-1.869-.542.063-1.082.092-1.622.092-2.58-.001-5.114-.577-7.604-.575l-.083.001c-1.63.389-3.268.778-4.608 1.637-.06 1.054-.113 2.076-.159 3.17l-.01.068c-.432 1.737-1.599 2.954-2.076 4.4-.127.643-.09 1.358-.206 2.11.124.643.162 1.291.257 1.893.099.624.258 1.188.61 1.667l.014.021c.305.493 1.148 1.279 1.998 2.011.854.742 1.708 1.438 2.13 1.909.083.098.147.188.203.29 1.735 1.399 3.768 2.546 5.704 3.838 1.953 1.304 3.813 2.762 5.14 4.815l.052.133c.06.355.135.738.136 1.145 0 .326-.053.67-.21 1.008l-.076.108c-.677.638-1.587.822-2.451.964-.869.135-1.716.231-2.271.532l-.118.038c-.991.134-2.055.247-3.123.248-2.179.002-4.414-.477-5.966-2.281l-.023-.031c-.538-.789-.892-1.635-1.28-2.423l-.024-.066a4.495 4.495 0 0 1-.155-1.167c.001-1.109.411-2.097.915-3.02.417-.759.895-1.483 1.299-2.205l-.009-.001a15.08 15.08 0 0 0-1.119-.05c-.217 0-.423.008-.585.028a1.023 1.023 0 0 0-.295.066c-.285.164-.487.473-.724.847-.235.368-.513.805-1.037 1.057l-.004.001c-.994.459-2.098.564-3.163.664-1.065.097-2.096.187-2.938.539a3.274 3.274 0 0 0-1.403 1.077c-.28 1.108-.499 2.333-.498 3.515-.004 1.001.157 1.958.542 2.796z"/></g><path d="M30.051 4.082c.682 0 1.361.018 2.037.076.717.429 1.767.352 2.163 1.206.131.413-.011.956-.461 1.105-.413.121-.837.213-1.249.343-.134.105-.265.209-.385.278-1.108.322-2.083.978-3.113 1.502-.45.381-1.159.782-.883 1.469.472.759 1.604 1.058 1.76 2.086.252 1.56-.149 3.209.41 4.723.837.926 1.984 1.502 2.815 2.396.267 1.274-.693 2.382-.602 3.593-.848 2.172-1.228 4.524-2.126 6.667-.996 2.923-2.158 6.007-2.008 9.185-.522 5.269-.473 10.679-.278 15.984-1.034 4.006.614 7.878.744 11.84-.567 2.07-.827 4.193-1.286 6.271a56.79 56.79 0 0 1-.572 5.753c-.016.292-.063.572-.011.862-.148.372-.179.764-.206 1.156-.094 1.205-1.022 2.587-.257 3.635 1.185-.455 2.329-.944 3.563-1.218.307-.221.534-.539.872-.72.605-.39 1.361-.344 2.015-.623 3.117 0 6.208-.629 9.309-.629.401 0 .802.01 1.203.034.478.223.845.613 1.254.913 1.657.316 2.815 1.664 4.305 2.349 2.921.503 5.618 1.806 8.586 2.174l.041.001c.664 0 1.189-.49 1.828-.49.108 0 .219.015.334.047.573.273 1.065.678 1.596 1.046h.051c2.556 0 4.289 2.079 6.55 2.853.102.012.201.018.3.018 1.292 0 2.303-.971 3.318-1.668.211-.354.349-.788.754-.989.283-.064.585-.116.885-.116.181 0 .36.019.533.064 2.274 1.654 4.851 2.826 7.317 4.053.165.355.083.786-.152 1.093-.549.482-1.155.633-1.788.633-1.06 0-2.2-.422-3.294-.422a3.34 3.34 0 0 0-.779.085c-.728.277-1.538.155-2.237.498-.44-.012-.879-.018-1.318-.018-.419 0-.838.005-1.258.012a10.168 10.168 0 0 0-1.666-.492c-4.789-1.828-10.155-.965-15.145-1.999-.08.002-.161.003-.241.003-.458 0-.919-.024-1.378-.024-.513 0-1.023.029-1.523.153-.336.177-.655.395-.994.567-1.571.33-3.146.457-4.721.457-3.757 0-7.516-.719-11.228-1.09-2.695 1.819-6.021 1.881-8.914 3.197-.24 1.166-.503 2.4-.794 3.558-.325.08-.643.115-.957.115-2.115 0-3.995-1.612-6.047-2.058a1.419 1.419 0 0 0-.362-.045c-.464 0-.906.202-1.361.284-2.149 1.933-5.265 1.537-7.598 3.124-.175.026-.371.06-.562.06-.207 0-.407-.039-.569-.167-.163-.244-.19-.396-.316-.598-.354-2.634 1.542-4.871 3.06-6.8.929-.566 2.017-.788 2.915-1.364.26-.617.243-1.289.32-1.943.168-.288.418-.513.615-.778.875-2.232 1.018-4.566 1.884-6.761.132-.3-.105-.592-.022-.896.069-.281.248-.341.335-.57-.581-2.815-1.604-5.585-1.395-8.551-.035-.183-.282-.257-.359-.584.155-2.528 1.505-4.808 1.398-7.312 1.371-2.193.704-4.664.948-7.045.058-.476.588-.684.775-1.097.718-4.422-.222-9.103.141-13.479.065-5.014-.505-10.352 1.821-14.911-.356-.623-.175-1.416-.524-2.069-.576-1.262-1.711-2.232-2.124-3.561-.018-.519-.034-1.052.208-1.526.146-.667-.619-.693-.876-1.123-.687-.755-.706-2.019-1.685-2.5a1.083 1.083 0 0 0-.317-.042c-.304 0-.63.088-.934.088-.235 0-.457-.053-.645-.24-.381-.33-.178-.869-.222-1.298.379-.747 1.282-1.052 1.569-1.906 1.914-.731 3.032-2.609 4.457-4.002.186-.134.412-.127.668-.246.644-.635.883-1.62 1.723-2.045 2.072-.323 4.063-1.067 6.13-1.548.236.005.474.007.71.007 1.176 0 2.352-.053 3.522-.053m101.68 2.924c.205.004.38.055.684.111 1.083 1.421 1.243 3.363 1.788 5.048.192.25.582.194.762.465.587 2.532.293 5.205.552 7.697h.049c2.842 0 5.666-1.525 8.508-1.525.44 0 .881.037 1.322.121.41-.178.857-.252 1.297-.33.462-.376.989-.655 1.463-1.009a40.609 40.609 0 0 1 3.018-.096c1.345 0 2.688.039 4.027.039 2.098 0 4.188-.095 6.261-.58 2.321-.752 4.686-2.04 7.188-2.04.338 0 .68.024 1.023.075a18.398 18.398 0 0 0 4.772 3.681c.432-.151.889-.292 1.349-.292.259 0 .517.044.772.156.986.886 1.533 2.33 1.819 3.628.854 1.305 1.493 2.873 1.404 4.447-.363.675-1.207.417-1.821.556-1.605-.347-3.218-.473-4.834-.473-3.126 0-6.263.475-9.376.752a77.967 77.967 0 0 0-1.45-.014c-5.859 0-11.661.654-17.5.654-1.003 0-2.009-.02-3.016-.065-2.085.828-4.411 1.642-6.085 3.145.305 2.183-.102 4.396-.015 6.55-.064.709-.463 1.494.076 2.123 2.855-.474 5.774-1.649 8.821-1.649l.147.001c.244.063.443.194.746.224.667.461 1.421.703 2.043 1.256 1.064 1.17 2.88 2.525 2.654 4.255a26.321 26.321 0 0 0-2.06-.08c-4.684 0-9.287 1.198-13.725 2.746-.553 2.071-1.528 4.172-1.456 6.374.55 1.296.404 2.732.431 4.138-.359 3.489-.252 7.256-1.823 10.495-.118 1.555-.944 2.954-1.041 4.506-1.071 2.676-.044 5.589-.3 8.356.174.598.167 1.213.285 1.827.041.267-.047.471-.17.834.57 1.317.462 2.866.367 4.284-.221.364-.619.62-.67 1.077.071.924.267 1.835.108 2.758.708 2.528 1.128 5.31.587 7.965-.823 1.3-1.938 2.47-3.122 3.412-.073.005-.147.01-.222.01-.047 0-.094-.002-.141-.006-1.447-1.229-3.381-2.462-3.823-4.46-.482-4.737 1.214-9.203 1.759-13.83-.111-1.358-.082-2.716.231-4.055.14-.378.66-.53.69-.961-.336-4.334-1.236-8.808.099-13.059-.397-5.656.338-11.439.348-17.042-1.632.125-3.121 1.326-4.767 1.326-.231 0-.467-.024-.706-.078-.211-.082-.507-.398-.607-.669.057-1.404.701-2.807 1.398-4.018 1.448-1.458 3.778-1.536 5.321-2.932.677-3.641.806-7.382.956-11.092-.509-1.05-1.793-1.469-2.291-2.547-.18-2.013-2.366-2.609-3.291-4.217-1.454-.068-2.849-.35-4.29-.526-2.376.006-4.616 1.853-6.899 1.853-.328 0-.657-.038-.986-.125-.324-.415-.663-.908-.461-1.459 5.58-3.63 12.388-4.256 18.712-5.614.708-2.054.897-4.363 2.459-6.056.085-.313.1-.517.234-.761.017-.551.029-1.107-.087-1.646.226-1.165-.497-2.874.505-3.639m163.865 4.275c.183 0 .364.022.529.075 4.36 5.982 8.398 13.162 7.84 20.777a1.573 1.573 0 0 1-.537.093c-1.002 0-2.021-.874-2.938-1.221-1.405-.479-2.821-.865-4.242-1.333a56.355 56.355 0 0 1-4.259-.662c-3.538.074-7.178.25-10.512 1.485-4.778 8.003 1.212 17.04-.587 25.486-.271 6.922-2.059 13.705-3.394 20.43-1.913 6.393-3.435 12.958-5.025 19.474.068 3.637-.764 7.642 1.261 10.873.104.318-.052.716-.315.905a1.45 1.45 0 0 1-.421.062c-.837 0-1.575-.687-2.39-.85-2.582-1.541-4.688-3.839-5.669-6.675-.034-.262.036-.555.064-.752-1.158-4.828-.046-9.615 1.075-14.32 1.271-5.32 3.025-10.631 2.771-16.107.078-.601.746-.898.924-1.476.276-1.224-.1-2.407-.043-3.639-.285-.417-.721-.69-1.124-.976-5.245-5.812.3-13.571-1.865-20.125-.704-1.496-1.912-2.639-2.944-3.804.084-2.054-.063-4.209.046-6.319.118-.618.829-1.421.099-1.905-1.422.108-2.752 1.4-4.242 1.4a2.53 2.53 0 0 1-1.223-.317c-3.379-3.889-9.119-2.321-13.434-4.247a7.951 7.951 0 0 1-2.99.578 8.352 8.352 0 0 1-4.943-1.63 111.268 111.268 0 0 0-4.287-.076c-4.622 0-9.264.22-13.866.22-1.661 0-3.316-.029-4.965-.106-.556.024-1.198.13-1.806.13-.49 0-.957-.068-1.337-.304.023-.158.182-.323.432-.39 3.458-.902 7.119-1.519 10.713-1.939.805.337 1.566.74 2.399 1.019.681.115 1.362.164 2.046.164 3.52 0 7.069-1.282 10.592-1.282 1.459 0 2.915.22 4.361.843.465-.145.384-.734.792-.943 1.399-1.562 3.023-2.015 4.745-2.015 2.36 0 4.901.851 7.285.851 1.247 0 2.451-.232 3.564-.941.297-.415.528-.877.952-1.18.072-.417.216-.859.55-1.143 1.229.083 2.172.98 3.403 1.05 1.561-.102 3.147.007 4.677-.224.344-.282.53-.767.939-.967.054-.007.106-.01.159-.01.395 0 .763.18 1.112.345.76-.336 1.551-.434 2.354-.434 1.112 0 2.25.187 3.369.187.656 0 1.308-.065 1.942-.27 1.676-.069 3.443-.218 5.195-.218 2.937 0 5.827.419 8.158 2.335 2.296-.374 3.756-2.387 4.336-4.502.443-1.813-.103-3.665.18-5.434.158-.027.327-.046.494-.046M62.118 31.807c.61 0 1.126.58 1.694.797 2.609 2.106 4.039 5.246 5 8.296.222 1.539.554 3.087.83 4.628.407 2.521 0 5.153.536 7.642.547.246 1.263.067 1.69.568.787 1.925.607 4.09 1.389 6.016.642 4.543 2.086 9.099 1.536 13.748.207.612.134 1.232.198 1.868.25.523.387 1.192.958 1.477a8.353 8.353 0 0 1 1.657-.194c1.09.001 2.129.327 2.77 1.429.397.993-.653 1.743-.988 2.594-.375.938-.95 1.924-1.867 2.435-.501.173-.99.246-1.472.246-2.518 0-4.805-1.996-7.415-1.996-.166 0-.333.009-.501.025-2.063-3.946-4.973-7.604-5.554-12.171.13-2.293-.066-4.563.067-6.863-.154-.288-.156-.646-.342-.912a36.97 36.97 0 0 0-1.915-.049c-3.111 0-6.252.369-9.315.805-2.501 2.7-2.174 6.902-4.643 9.678.044.372-.205.708-.079 1.075.245.518.631 1.011.583 1.627-.536.616-1.419.981-1.998 1.558a2.47 2.47 0 0 1-.254.013c-2.129 0-2.455-2.637-3.107-4.207-.121-3.134-.711-6.768.817-9.608 1.003-3.282 1.118-6.634 2.001-9.929 2.755-2.444 4.645-5.752 7.462-8.119.203-.484.529-.9.735-1.383 1.31-4.842 5.269-8.048 9.072-10.982.16-.08.31-.112.455-.112m-6.674 23.62c.033 0 .065-.001.098-.003 2.664-.437 5.479-.476 7.997-1.285.158-2.867.546-5.823-.106-8.603.058-.198.112-.323.134-.467-.35-2.389-1.646-4.771-3.767-6.02-1.386 1.025-2.418 2.955-3.011 4.652-.08.808.329 1.344.643 1.99a16.133 16.133 0 0 0-.005 2.448c-.369.761-.365 1.614-.631 2.402-.294.545-.484 1.108-.691 1.688-.342 1.022-1.712 1.947-1.466 3.009.253.118.525.189.805.189m56.327-22.778c.241 0 .476.033.68.152.748 2.166.06 4.883.574 7.18.503.182 1.063.075 1.566.167.812 1.244-.403 2.836-.802 4.118a8.996 8.996 0 0 1-.527 1.867c-.413 1.873-.74 3.714-1.145 5.586-.778 5.76-.367 11.766.939 17.487 2.171 6.042 4.217 12.219 6.291 18.349.036.26.045.582-.034.966-.813.963-1.964 2.196-3.29 2.196-.041 0-.083-.001-.124-.004-1.674-3.882-6.307-4.179-9.876-5.03-.682-9.456-4.691-18.411-8.995-26.681-.617-.498-.954-1.225-1.585-1.69-.924-1.726-2.405-3.101-3.44-4.734-.853-.735-1.178-2.075-2.32-2.446-1.031 1.215-.304 3.334-.529 4.915-.684 4.485-1.955 8.923-2.325 13.435.141.642-.029 1.434.546 1.901.209-.085.443-.126.683-.126.861 0 1.779.531 1.768 1.446-1.012 1.463-2.312 2.865-3.501 4.153h-.051c-1.547 0-3.146-1.283-3.694-2.705-.106-4 .261-8.104.924-11.913.024-1.055.12-2.146.333-3.181-.131-.71-.027-1.452.166-2.145-.798-4.3 1.059-8.752-.056-12.994 1.134-1.745 2.897-3.002 4.181-4.611.156-.03.342-.061.526-.061.275 0 .542.07.688.316.251 1.236.04 2.522.142 3.769.196.281.334.589.471.904 2.451 2.895 4.875 5.828 8.192 7.843.897.841 1.524 2.193 2.75 2.504.995-2.191 1.619-5.286 1.736-7.329.192-3.335 1.117-6.693 1.498-9.964 1.756-2.043 4.53-2.571 6.894-3.592.236-.012.495-.048.746-.048m144.207 4.025c.146 0 .291.027.428.094 1.855 2.733 3.748 5.973 3.593 9.375-.363.651-1.052 1.026-1.631 1.427-.864.053-1.725.097-2.585.097-.622 0-1.243-.023-1.867-.083-.969.153-1.998.366-3.006.366-.607 0-1.208-.077-1.782-.291-.877-.42-.944-1.58-1.659-2.187-.555-.189-1.11-.385-1.678-.546-.511-.856-1.233-1.18-2.008-1.18-1.056 0-2.207.6-3.055 1.273-.238.498-.562 1.018-.528 1.593.185.527.639.895.856 1.407 2.549 2.221 5.898 3.056 8.612 5.048 3.353 2.891 5.632 6.742 8.969 9.693.197.603.802.938 1.117 1.478.35.486.542 1.039.804 1.572.633 1.791.427 3.637.619 5.486-.355 3.188-3.849 4.308-6.262 5.702-1.569.485-3.232.635-4.894.635l-.374-.003c-3.574 1.002-6.729 1.81-9.816 4.012-.335.326-.657.815-1.161.815a.874.874 0 0 1-.192-.023c-.803-.583-1.339-1.385-2.033-2.063-1.659-2.909-3.539-5.796-6.581-7.51-2.31-1.132-4.78-2.09-7.171-2.991-.988-2.008-.651-4.611-.104-6.744 1.751-2.421 5.231-1.305 7.684-2.44.829-.395.965-1.445 1.738-1.893.188-.104.603-.139 1.055-.139.792 0 1.699.103 1.699.103-1.072 2.122-2.962 4.058-2.287 6.604.396.802.743 1.63 1.255 2.38 1.453 1.692 3.562 2.157 5.696 2.157 1.042 0 2.093-.111 3.075-.245 1.301-.691 3.498-.346 4.642-1.439.294-.633.155-1.294.046-1.945-2.568-3.976-7.261-5.721-10.817-8.606-.151-.571-3.538-2.956-4.359-4.26-.803-1.096-.683-2.509-.938-3.765.125-.727.075-1.477.219-2.204.518-1.554 1.682-2.765 2.076-4.395.049-1.165.106-2.247.17-3.37 1.453-.981 3.216-1.372 4.91-1.779h.126c2.543 0 5.077.575 7.604.575.583 0 1.165-.03 1.747-.105 1.351 1.109 2.074 3.007 3.738 3.794 1.337-.486 2.721-1.021 4.163-1.147.646-1.425-1.325-2.802-.508-4.199.206-.073.433-.134.655-.134m-39.686 3.289c.641 0 1.282.011 1.92.033 1.218.956 2.636 1.668 3.732 2.782.277.478.591 1.057.474 1.619-.348.776-1.252 1.035-1.999 1.235-.158.375-.179.813-.274 1.214.105 5.432-.262 10.911-2.166 15.988.062.897-.068 1.803-.264 2.688.018.397-.015.794.007 1.194-.427 1.271.066 2.786-.423 3.896-1.485.373-3.06.478-4.477 1.036-.312.602.432 1.081.202 1.692-1.082 1.024-2.556 1.884-3.097 3.471-.172.055-.355.076-.539.076s-.368-.021-.543-.052c-3.161-2.782-7.339-5.581-7.739-10.075-1.943.469-4.075.797-6.192.797-3.194 0-6.355-.748-8.787-2.888-.673-1.472-1.621-2.767-2.186-4.301-.155-1.064-.108-2.166-.049-3.238.81-2.221 1.98-4.303 2.775-6.51 1.031-3.4 3.376-6.262 5.828-8.827a.944.944 0 0 1 .362-.077c.7 0 1.161.883 1.695 1.274.774 3.994.323 8.398-1.432 12.097-.044.238-.086.586-.125.722.104.771.396 1.603 1.086 2.044 1.229.528 2.591.628 3.911.628h.112c4.109-.309 6.103-4.426 8.248-7.408.174-.85.531-1.684.722-2.528-.19-1.491-1.134-2.875-2.365-3.686-.524-.285-1.116-.328-1.713-.328-.257 0-.515.007-.768.007-.468 0-.923-.027-1.329-.183-.392-1.067 1.03-1.415 1.733-1.749.673-.704 1.485-1.247 2.416-1.548a59.606 59.606 0 0 1 11.244-1.095m-58.688 2.418c.252 0 .505.023.756.081.298.152.548.394.812.6.717.867.335 2.08.653 3.061.336.048.668.07.996.07 3.242 0 6.161-2.149 9.471-2.293 2.456-.201 4.976-.226 7.466-.228 1.019.224 1.909.744 2.923.98.48.392 1.122.759 1.201 1.438.465 2.283-1.723 4.018-3.188 5.399-.223.009-.448.023-.672.023-.191 0-.384-.01-.573-.043-1.632-.854-3.361-1.123-5.126-1.123-2.787 0-5.661.673-8.37.783-1.123.387-2.421.247-3.485.809-.104 1.244-.502 2.803.067 3.942 2.36-.078 4.685-1.335 7.116-1.335.44 0 .885.042 1.334.139 1.264.481 2.243 1.591 2.487 2.926-.025 1.301.421 2.967-.652 3.945a.973.973 0 0 1-.44.103c-.48 0-.953-.324-1.396-.493-1.449-.387-2.947-.62-4.434-.62-2.034 0-4.046.436-5.874 1.502-.404.491-.547 1.145-.918 1.661-.312.705-1.527 1.358-1.014 2.151 1.327 1.146 3.111 1.456 4.56 2.372 2.052.421 3.667 2.098 5.812 2.118 3.548-.683 7.211-1.159 10.865-1.159 1.874 0 3.747.125 5.598.413.249-.057.498-.076.746-.076.533 0 1.066.089 1.604.089.074 0 .148-.001.222-.005 1.045.733 1.704 2.215 1.573 3.496-1.88.867-4.164.895-5.898 2.23-.5.093-1.019.011-1.503.209-3.822-.425-7.692-1.249-11.602-1.249-.915 0-1.833.044-2.752.151-1.249-.125-2.516-.058-3.751-.347-.655-.178-1.295-.421-1.95-.578h-.067c-.11 0-.221-.003-.332-.003-.173 0-.347.008-.516.042-1.224.605-2.453 1.145-3.761 1.545-2.562.908-4.915 2.804-7.674 2.804h-.057c-1.372-1.63-2.534-4.398-4.888-4.398-.26 0-.534.034-.825.106-1.132-.46-.017-2.038.301-2.829.076-.434.33-.802.41-1.233.48-.952.915-1.939 1.459-2.876.384-.754 1.223-1.345 1.248-2.233a1.11 1.11 0 0 0-.815-.317c-.623 0-1.327.359-1.964.359-.308 0-.599-.083-.859-.331-.064-.269-.061-.598-.052-.875 1.711-1.829 3.65-3.754 5.989-4.862.417-1.392.889-2.829 1.219-4.212a3.117 3.117 0 0 0-.545-.046c-1.427 0-2.925.86-4.312.86-.412 0-.815-.076-1.203-.273a1.67 1.67 0 0 1-.123-.784c1.534-2.291 3.474-4.408 5.66-5.954.716-.206 1.445-.145 2.162-.204.948-2.376 3.539-3.756 5.507-5.267.452-.084.913-.161 1.374-.161m39.081 34.981c.113 0 .388.122.538.224 2.162 3.346 4.008 7.143 3.881 11.263.016.124.055.281.098.443-.382.429-1.001.261-1.496.336l-.072-.127c-1.983-1.436-4.491-1.998-7.001-1.998-1.448 0-2.897.188-4.247.503-.935 1.829-1.167 3.916-1.625 5.869-.273 5.867-1.422 11.755-2.915 17.485a.827.827 0 0 1-.45.118c-.112 0-.223-.018-.314-.044-3.723-6.034-1.692-13.556-2.766-20.229-.137-1.292-.015-2.732-.187-4.014a2.209 2.209 0 0 0-.37-.031c-1.356 0-2.62 1.218-4.074 1.218-.168 0-.338-.017-.512-.053-.381-.278-.673-.667-.979-1.025-1.937-1.167-4.327-.811-6.36-1.747a9.331 9.331 0 0 1-1.278.091c-1.41 0-2.785-.356-3.896-1.277-.617-.088-1.392-.045-1.796-.584a1.114 1.114 0 0 1 .165-.686 5.483 5.483 0 0 1 1.44-.185c1.073 0 2.148.274 3.165.621.87-1.131 1.947-1.463 3.106-1.463 1.633.001 3.426.657 5.026.657a5.3 5.3 0 0 0 .474-.021c.703-.318 1.082-1.019 1.562-1.57 1.006.19 2.227.663 3.359.663.589 0 1.154-.128 1.651-.491.665.079 1.346.106 2.037.106 1.526 0 3.101-.133 4.645-.133 2.142 0 4.229.255 6.053 1.475.063.007.127.011.189.011.684 0 1.299-.418 1.744-.916 1.174-1.257.427-3.276 1.195-4.488l.01-.001m-49.889 5.54c.832.479 1.886.996 2.34 1.896-.6 4.929-1.375 10.019-1.003 14.95-.346 2.636.574 5.235.374 7.856-.467.203-.992.285-1.53.285-.907 0-1.85-.232-2.613-.508-.861.147-1.654.688-2.546.688-.137 0-.276-.014-.418-.042-1.313-.611-3.162-.607-3.821-2.285-.156-.347-.002-.78-.23-1.086-.074-.428-.062-.864-.219-1.277-.72-4.52 4.288-6.356 7.288-8.395.196-.728.172-1.491.086-2.234.172-.272.157-.58.225-.882a30.313 30.313 0 0 1 .641-6.367c.412-.871.237-2.41 1.426-2.599m-4.839 21.532c.521-.026 1.09-.136 1.61-.263.474-1.481.696-3.111.674-4.686a1.244 1.244 0 0 0-.242-.021c-.949 0-1.851.965-2.465 1.648-.832.98-.516 2.524.423 3.322m116.652-19.775c.211 0 .423.036.638.123-.229 4.393-.077 8.78-.355 13.142-1.029 3.195-2.772 6.128-4.278 9.136-2.106 2.295-4.659 4.23-6.203 6.975-.51 2.28-.178 4.739-.245 6.923-4.426 1.396-3.661 6.847-5.339 10.345.272 1.018 1.43 1.496 2.195 2.158 8.267-1.486 12.94-9.438 18.006-15.324a.793.793 0 0 1 .119-.008c.099 0 .199.015.299.03.704.526-.133 1.467-.344 2.099-.315.605-.614 1.208-.918 1.819-3.232 5.504-8.049 10.07-13.704 13.111a5.669 5.669 0 0 0-.293-.008c-1.269 0-2.668.454-3.96.454-.877 0-1.703-.21-2.406-.912-.466-.5-.388-1.216-.669-1.784-1.161-.54-2.119-1.488-2.481-2.739-.682-4.074 1.582-7.876.855-11.907 1.996-4.666 4.068-9.39 6.734-13.697a.612.612 0 0 0-.54-.299c-.505 0-1.135.469-1.638.488-1.329.643-2.755.987-4.095 1.619h-.004c-.647 0-1.221.382-1.855.42-.55-.597-.704-1.404-1.525-1.404-.138 0-.292.022-.47.071-.249-.302-.243-.717-.449-1.037-.069-.942-.181-1.822-.24-2.762.003-1.539.482-3.295.11-4.688-.876.068-1.733.503-2.601.719-.156.308-.188.674-.294 1.004-1.247 2.056-3.309 3.39-4.91 5.163-.482.817-.643 1.898-1.411 2.514-1.613.438-3.361.591-4.749 1.572a9.315 9.315 0 0 1-1.625.143c-2.894 0-5.576-1.328-7.985-2.919-1.414-1.418-2.346-3.213-3.461-4.845-.274-.991-.972-2.269-.289-3.184.313-.226.716-.05 1.038-.2 1.351-.987 2.921-1.626 4.302-2.593 2.34-.551 4.178-2.374 6.574-2.754.335.148.408.414.593.452.259.024.519.035.778.035 1.02 0 2.046-.153 3.062-.153.692 0 1.382.071 2.062.31 1.318 1.066 2.361 2.381 4.013 2.99 3.753-.868 7.414-3.198 11.285-3.198.326 0 .654.017.984.052.035.168.069.304.102.438.012.588-.604.719-.838 1.147-1.029 1.891-.776 4.73.121 6.55.329.467.862.739 1.364.969.174.015.359.029.543.039 4.611-1.026 8.66-4.234 10.335-8.734.123-.882.813-1.872.389-2.708-.922.002-1.67.725-2.518 1.026-.782.16-1.654.26-2.538.26-2.418 0-4.917-.744-5.856-3.02l.561-.5c.94.826 2.152 1.124 3.362 1.24 1.055-.131 2.044-.482 3.095-.656 1.282-.425 2.476-1.071 3.735-1.541 1.269-.472 2.511-1.963 3.832-1.962m-37.263 19.789c.146 0 .293-.006.44-.017 1.833-2.434 1.188-6.613-1.346-8.414-2.406.101-5.153 2.312-4.219 4.935.787 2.209 2.883 3.496 5.125 3.496m-18.514-14.896c1.352 0 3.05.125 3.981.675 1.079.578 2.218 1.257 2.82 2.363.19 1.801-2.146 2.496-2.951 3.94-1.063.423-1.616 1.57-2.627 2.115-.849.082-1.659.591-2.157 1.256 1.48 1.605 3.597 2.825 5.217 4.359.659.599 1.328 1.221 1.87 1.919 1.441 1.574 3.566 3.23 3.82 5.41a3.413 3.413 0 0 1-.728.074c-1.449 0-2.974-.789-4.442-.91a2.175 2.175 0 0 1-1.088.179c-.435-.221-.874-.472-1.183-.857-1.992-1.286-3.299-3.406-5.057-4.964-1.322-.873-2.193-2.517-3.589-3.089-1.122 2.312-1.006 5.308-2.77 7.271.038.136-.008.392-.029.577-.061.09-.142.179-.209.264a.441.441 0 0 1-.188.035c-.182 0-.396-.071-.493-.153-2.325-4.303-.366-9.383.558-13.825a1.276 1.276 0 0 0-.364-.052c-.615 0-1.227.39-1.817.39-.156 0-.311-.027-.463-.096-.343-.501.236-.92.384-1.347-.014-.082-.034-.143-.071-.3.034-.195.102-.448.241-.63 1.92-.852 3.726-1.97 5.616-2.88.463-.383 1.061-.589 1.604-.86a3.23 3.23 0 0 1 .662-.44s.084-.056.095-.056c.003 0-.002.007-.021.023.124-.057.244-.118.376-.161a2.827 2.827 0 0 1 .989-.144c0 .001.887-.086 2.014-.086m-5.101 7.734c.949-.118 2.044-.885 2.175-1.866a1.017 1.017 0 0 0-.638-.215c-.604 0-1.255.445-1.846.568-.036.494-.041 1.136.309 1.513m-39.166-3.797c1.469.277 3.031 1.067 3.82 2.423.157.558-.004 1.111.048 1.668-1.68 2.01-4.117 2.984-6.483 3.902-.788.867-1.985 2.507-1.283 3.64h.019c2.025 0 4.158-2.726 6.154-2.726.627 0 1.241.27 1.834.979-.246 1.659-2.386 2.104-3.567 3.045-1.007.517-2.094.767-3.15 1.124a13.546 13.546 0 0 0-.495-.008c-.566 0-1.137.025-1.703.028-1.114-.216-2.135-.923-2.805-1.835-.175-.323-.269-.689-.348-1.047-.335-4.771 3.619-9.434 7.959-11.193m-1.771 5.691c.602-.765 1.481-1.254 1.865-2.237h-.016c-.554 0-.713-.398-1.104-.562-.326.95-1.746 2.14-.745 2.799M30.051 3.134c-.592 0-1.185.014-1.779.027-.581.013-1.161.026-1.741.026-.23 0-.459-.002-.69-.007l-.119-.003-.117.027a49.8 49.8 0 0 0-2.439.655c-1.243.356-2.416.692-3.622.88l-.148.023-.134.068c-.743.377-1.141 1.015-1.462 1.527-.125.2-.245.392-.372.548l-.02.005a1.907 1.907 0 0 0-.662.286l-.059.042-.051.05c-.439.429-.846.895-1.238 1.346-.902 1.036-1.755 2.014-2.895 2.449l-.417.16-.143.424c-.073.217-.263.394-.568.665-.325.289-.694.616-.947 1.114l-.126.249.029.278c.005.049-.001.153-.007.246-.025.39-.071 1.111.525 1.648.341.329.775.495 1.292.495.218 0 .42-.028.599-.053.123-.017.238-.033.323-.035.203.151.338.446.528.885.178.412.379.876.73 1.286.185.266.425.433.61.551-.17.554-.15 1.099-.134 1.555l.005.126.038.121c.277.893.79 1.601 1.286 2.285.343.473.666.92.88 1.388l.012.027.014.026c.089.166.118.414.152.701.032.265.069.573.167.889-1.817 3.845-1.775 8.104-1.735 12.228.009.896.018 1.788.006 2.671-.161 1.972-.066 4.009.025 5.982.112 2.395.227 4.87-.124 7.197a6.76 6.76 0 0 1-.12.119c-.246.241-.617.604-.691 1.207-.083.81-.071 1.594-.059 2.353.025 1.557.047 3.027-.751 4.305l-.155.25.012.293c.052 1.212-.293 2.409-.659 3.675-.325 1.124-.661 2.287-.738 3.539l-.009.141.033.137c.069.292.202.503.316.648-.091 2.209.424 4.283.923 6.291.145.585.294 1.186.425 1.778a1.627 1.627 0 0 0-.244.542c-.094.345-.024.661.018.85l.006.024c-.443 1.156-.698 2.301-.945 3.409-.243 1.089-.473 2.121-.854 3.128a3.811 3.811 0 0 1-.13.151c-.151.173-.323.369-.47.622l-.099.171-.024.195c-.021.179-.036.359-.05.539-.026.324-.05.618-.114.877-.32.169-.676.311-1.048.458-.518.205-1.053.418-1.575.736l-.146.089-.105.133-.229.291c-1.521 1.924-3.414 4.319-3.025 7.221l.027.204.109.174c.031.05.05.097.071.144.053.117.127.278.259.476l.083.125.117.092c.312.248.701.373 1.158.373.246 0 .475-.035.658-.063l.213-.032.224-.128c.931-.634 2.049-.915 3.233-1.213 1.462-.368 2.972-.748 4.268-1.82.11-.027.22-.058.33-.088.225-.063.437-.124.595-.124.045 0 .084.005.121.016.795.173 1.556.532 2.361.913 1.223.577 2.488 1.175 3.927 1.175.4 0 .798-.047 1.183-.143l.554-.136.139-.554c.261-1.036.499-2.13.703-3.113 1-.405 2.056-.679 3.166-.966 1.734-.448 3.523-.911 5.156-1.93 1.077.113 2.176.256 3.242.394 2.528.328 5.142.667 7.75.667 1.783 0 3.391-.156 4.916-.478l.123-.026.112-.057c.197-.1.388-.214.579-.327.107-.064.214-.129.323-.189a5.745 5.745 0 0 1 1.185-.101c.222 0 .443.007.666.012.238.006.476.013.712.013l.152-.001c2.103.424 4.264.529 6.356.631 3.019.146 5.871.285 8.54 1.304l.078.03.083.016a9.163 9.163 0 0 1 1.511.449l.169.062.18-.003c.415-.007.828-.012 1.242-.012.43 0 .861.006 1.292.018l.233.007.209-.104c.233-.114.54-.151.894-.194.365-.044.775-.094 1.195-.244.155-.032.323-.048.511-.048.461 0 .963.095 1.495.197.583.11 1.184.225 1.799.225.958 0 1.748-.284 2.414-.869l.069-.062.057-.074c.462-.601.564-1.413.26-2.068l-.14-.302-.298-.148c-.361-.18-.724-.357-1.088-.536-2.074-1.017-4.217-2.068-6.094-3.434l-.144-.104-.171-.046a3.07 3.07 0 0 0-.775-.096c-.33 0-.678.044-1.097.141l-.109.025-.102.047c-.588.291-.857.807-1.035 1.147-.007.014-.015.026-.021.04-.139.1-.278.202-.418.305-.741.549-1.441 1.065-2.175 1.065l-.096-.003c-.733-.269-1.431-.702-2.167-1.158-1.227-.764-2.61-1.623-4.328-1.703a13.719 13.719 0 0 1-.148-.107c-.414-.299-.841-.609-1.348-.852l-.073-.036-.079-.021a2.197 2.197 0 0 0-.592-.082c-.506 0-.924.175-1.261.314-.216.09-.404.168-.547.175-1.499-.192-2.922-.633-4.427-1.099-1.265-.391-2.571-.794-3.929-1.039-.472-.231-.926-.547-1.405-.879-.832-.579-1.691-1.177-2.782-1.439-.065-.052-.129-.106-.194-.16-.297-.247-.634-.527-1.067-.73l-.164-.077-.181-.01a21.304 21.304 0 0 0-1.259-.036c-1.597 0-3.193.162-4.738.318-1.503.152-3.058.311-4.571.311H32.8l-.178.076c-.189.081-.431.13-.688.182-.445.09-.948.191-1.436.495a3.378 3.378 0 0 0-.688.541c-.045.043-.088.085-.13.122-.858.209-1.671.507-2.458.812.04-.238.119-.522.217-.859.133-.455.27-.926.309-1.42.026-.376.051-.651.142-.879l.1-.251-.047-.267c-.018-.099-.006-.241.007-.407l.014-.191a57.02 57.02 0 0 0 .572-5.726c.178-.813.328-1.639.473-2.437.223-1.228.453-2.498.785-3.708l.038-.139-.005-.144c-.049-1.499-.305-2.976-.551-4.406-.427-2.472-.831-4.807-.222-7.166l.035-.133-.005-.139c-.164-4.445-.28-10.264.274-15.856l.007-.069-.003-.068c-.13-2.753.813-5.5 1.726-8.157l.222-.647c.489-1.174.829-2.4 1.158-3.585.298-1.075.58-2.09.964-3.073l.078-.201-.016-.215c-.027-.364.111-.776.271-1.254.239-.712.51-1.521.313-2.462l-.054-.258-.179-.193c-.463-.499-.989-.893-1.497-1.273-.43-.322-.839-.629-1.182-.978-.214-.695-.208-1.473-.202-2.292.005-.674.011-1.371-.104-2.082-.15-.984-.839-1.526-1.342-1.923a5.219 5.219 0 0 1-.388-.324c.086-.08.207-.175.291-.241.052-.04.102-.081.151-.12.27-.14.537-.288.804-.436.694-.388 1.353-.753 2.045-.954l.107-.032.097-.055c.128-.073.247-.159.36-.246.167-.048.335-.092.504-.136.189-.049.379-.098.566-.153.929-.309 1.407-1.337 1.099-2.303l-.018-.058-.025-.054c-.437-.94-1.292-1.199-1.916-1.388-.242-.073-.47-.142-.62-.232l-.188-.112-.218-.019a25.09 25.09 0 0 0-2.118-.078zm101.367 2.918l-.262.2c-1.061.811-.952 2.135-.871 3.102.034.41.069.833.016 1.118l-.035.188.04.187c.078.363.083.759.071 1.224-.079.192-.118.365-.154.522l-.002.008c-1.161 1.359-1.589 2.966-2.003 4.523-.107.404-.211.794-.325 1.173-1.104.229-2.235.442-3.333.649-5.19.977-10.557 1.988-15.163 4.984l-.265.172-.109.297c-.397 1.087.305 1.985.605 2.369l.196.252.309.081c.394.104.807.157 1.228.157 1.317 0 2.55-.5 3.743-.982 1.083-.438 2.107-.852 3.103-.87.456.057.908.124 1.357.19.796.118 1.616.24 2.457.304.424.566.95 1.009 1.426 1.409.853.718 1.38 1.197 1.449 1.976l.015.164.068.149c.343.742.913 1.215 1.417 1.633.316.262.597.495.777.752l-.007.162c-.135 3.373-.276 6.856-.862 10.186-.587.446-1.319.733-2.087 1.036-1.057.415-2.149.845-3.034 1.735l-.088.088-.061.107c-.62 1.077-1.453 2.71-1.524 4.453l-.008.189.065.178c.193.525.678 1.04 1.153 1.225l.066.026.069.016c.297.066.604.101.915.101 1.053 0 1.978-.375 2.874-.737.318-.129.629-.255.933-.358-.033 1.783-.127 3.601-.218 5.368-.176 3.406-.356 6.926-.127 10.385-1.063 3.536-.691 7.16-.331 10.665.079.766.16 1.555.223 2.325l-.028.025c-.177.159-.443.4-.585.785l-.021.056-.013.058c-.297 1.272-.383 2.664-.261 4.251-.186 1.533-.507 3.09-.817 4.595-.621 3.003-1.262 6.109-.933 9.352l.005.054.012.054c.442 1.995 2.019 3.264 3.409 4.383.25.201.495.398.727.596l.228.192.297.029a2.902 2.902 0 0 0 .522-.003l.291-.022.228-.182c1.35-1.073 2.501-2.334 3.332-3.646l.094-.147.034-.171c.487-2.388.307-5.077-.548-8.214.091-.73.014-1.417-.061-2.081-.02-.178-.04-.355-.057-.533.034-.044.11-.132.163-.194.108-.126.243-.282.359-.473l.12-.198.016-.23c.094-1.396.197-2.944-.304-4.371.089-.28.156-.582.099-.955-.049-.261-.073-.485-.097-.709a7.829 7.829 0 0 0-.167-1.061c.081-1.074-.006-2.146-.092-3.184-.138-1.687-.268-3.281.314-4.735l.057-.141.009-.152c.042-.67.254-1.342.479-2.054.226-.714.458-1.451.543-2.256 1.236-2.645 1.446-5.539 1.647-8.338.058-.802.113-1.558.191-2.315l.005-.057-.001-.059c-.005-.271-.003-.543-.002-.816.006-1.148.013-2.334-.433-3.497-.009-1.373.428-2.73.89-4.165.135-.419.273-.85.4-1.282 5.117-1.749 9.126-2.532 12.946-2.532.668 0 1.336.026 1.985.077l.897.07.117-.893c.244-1.867-1.144-3.251-2.258-4.364-.225-.225-.443-.442-.635-.652l-.033-.037-.037-.033c-.453-.403-.946-.664-1.381-.894-.271-.144-.526-.278-.753-.436l-.202-.139-.244-.024a.906.906 0 0 1-.229-.072 3.124 3.124 0 0 0-.372-.125l-.11-.029-.115-.002-.159-.001c-2.062 0-4.026.497-5.926.977-.753.191-1.478.373-2.191.522.014-.076.031-.164.052-.265.042-.204.09-.435.112-.674l.005-.062-.002-.061c-.034-.836.011-1.682.058-2.576.06-1.152.123-2.338.01-3.539 1.337-1.055 3.086-1.74 4.782-2.404l.462-.182c.916.039 1.853.057 2.855.057 2.944 0 5.915-.167 8.788-.328 2.854-.16 5.806-.326 8.711-.326.478 0 .954.004 1.432.014l.052.001.052-.004c.91-.082 1.821-.179 2.734-.277 2.158-.232 4.39-.472 6.557-.472 1.709 0 3.225.147 4.634.452l.204.044.205-.046c.095-.021.256-.026.412-.031.531-.016 1.521-.045 2.035-1l.101-.186.011-.209c.109-1.926-.713-3.689-1.462-4.873-.295-1.252-.89-2.896-2.074-3.96l-.114-.103-.141-.062a2.871 2.871 0 0 0-1.151-.234c-.44 0-.858.091-1.253.21a17.379 17.379 0 0 1-4.173-3.295l-.227-.244-.328-.049a7.846 7.846 0 0 0-1.164-.086c-1.98 0-3.808.706-5.575 1.388-.646.25-1.258.487-1.868.686-2.077.48-4.2.545-6.006.545-.664 0-1.33-.01-1.996-.019-.677-.01-1.354-.02-2.032-.02-1.199 0-2.181.031-3.088.099l-.276.021-.221.166c-.193.144-.395.273-.596.403-.229.147-.463.299-.696.473a6.592 6.592 0 0 0-.998.244 8.174 8.174 0 0 0-1.225-.091c-1.547 0-3.049.404-4.501.795-1.1.296-2.152.579-3.184.686-.036-.64-.047-1.295-.059-1.977-.029-1.618-.059-3.292-.441-4.942l-.039-.167-.095-.143a1.517 1.517 0 0 0-.754-.574c-.106-.367-.199-.75-.297-1.149-.322-1.32-.655-2.686-1.534-3.84l-.222-.291-.359-.066-.211-.042a3.217 3.217 0 0 0-.629-.085l-.33-.013zm164.178 4.281a3.55 3.55 0 0 0-.672.066l-.652.126-.104.655c-.145.904-.098 1.793-.053 2.653.05.952.098 1.852-.112 2.705-.198.728-1.016 3.112-3.18 3.708-2.68-1.998-5.874-2.263-8.393-2.263-1.19 0-2.383.067-3.536.132-.573.032-1.141.064-1.698.087l-.13.005-.122.04c-.473.152-.998.224-1.651.224-.521 0-1.052-.044-1.611-.091-.571-.047-1.163-.096-1.758-.096-.892 0-1.643.113-2.327.353-.336-.144-.712-.264-1.14-.264-.093 0-.187.006-.28.018l-.155.02-.141.068c-.441.216-.708.567-.903.824l-.076.1c-.782.093-1.588.104-2.436.116-.581.008-1.182.016-1.781.053-.429-.037-.847-.224-1.329-.44-.579-.259-1.233-.552-2.014-.605l-.383-.026-.294.249c-.38.323-.643.766-.794 1.349-.288.276-.491.583-.676.863-.027.043-.056.086-.085.129-.812.475-1.739.697-2.898.697-1.113 0-2.272-.2-3.499-.413-1.243-.215-2.528-.438-3.786-.438-2.246 0-3.952.708-5.358 2.227a1.628 1.628 0 0 0-.479.543c-1.247-.441-2.583-.656-4.062-.656-1.848 0-3.688.333-5.467.656-1.774.322-3.451.625-5.125.625-.646 0-1.24-.045-1.813-.138a15.907 15.907 0 0 1-1.398-.586c-.287-.131-.574-.262-.867-.384l-.229-.097-.247.029c-3.986.466-7.635 1.127-10.842 1.963-.605.162-1.047.618-1.13 1.165l-.095.621.534.329c.484.3 1.085.445 1.835.445.402 0 .793-.038 1.171-.076.218-.022.433-.043.636-.054 1.519.071 3.143.105 4.964.105 2.311 0 4.665-.056 6.94-.11 2.273-.054 4.624-.109 6.926-.109 1.437 0 2.737.021 3.968.065a9.339 9.339 0 0 0 5.263 1.642c1.024 0 2.021-.17 2.971-.506 1.715.686 3.576.902 5.38 1.11 2.847.33 5.537.642 7.357 2.737l.114.131.152.083c.531.285 1.094.43 1.672.43 1.003 0 1.891-.43 2.674-.81.238-.115.47-.228.694-.323-.062.159-.121.33-.156.51l-.012.064-.004.065c-.06 1.143-.045 2.298-.031 3.415a55.166 55.166 0 0 1-.015 2.915l-.016.381.253.286c.202.228.41.455.619.684.808.879 1.644 1.788 2.152 2.844.81 2.508.402 5.235-.029 8.12-.63 4.214-1.281 8.571 2.074 12.288l.07.078.085.061.152.105c.209.146.411.287.565.435.004.419.043.821.08 1.212.062.646.121 1.256.003 1.828-.035.072-.154.205-.244.304-.264.292-.626.693-.706 1.311l-.011.083.004.083c.199 4.284-.905 8.596-1.976 12.766a203.283 203.283 0 0 0-.771 3.076c-1.064 4.47-2.271 9.527-1.118 14.574a2.87 2.87 0 0 0-.04.839l.013.097.032.093c.999 2.887 3.157 5.436 6.079 7.18l.14.084.16.031c.229.047.503.183.793.327.509.253 1.085.541 1.783.541.233 0 .465-.033.688-.101l.156-.045.131-.096c.613-.441.892-1.271.662-1.971l-.037-.108-.061-.099c-1.386-2.211-1.281-4.867-1.171-7.68.034-.849.068-1.727.057-2.583.243-.993.483-1.986.725-2.981 1.306-5.394 2.656-10.971 4.26-16.327l.013-.043.008-.045c.296-1.485.619-3.005.932-4.474 1.108-5.203 2.254-10.583 2.477-16.023.768-3.704.127-7.477-.493-11.126-.825-4.854-1.604-9.446.783-13.702 3.086-1.072 6.517-1.24 9.782-1.311 1.249.246 2.567.45 4.134.641.625.205 1.249.394 1.872.583.748.227 1.522.462 2.271.717.229.087.528.255.847.432.703.394 1.502.839 2.398.839.297 0 .586-.05.859-.149l.579-.208.045-.614c.621-8.473-4.279-16.274-8.021-21.405l-.182-.25-.294-.094a2.758 2.758 0 0 0-.818-.118zM62.118 30.859c-.299 0-.593.07-.872.208l-.084.042-.075.057c-4.335 3.345-8.036 6.515-9.389 11.415a5.953 5.953 0 0 1-.284.517c-.107.182-.225.381-.331.599-1.457 1.257-2.672 2.743-3.849 4.181-1.131 1.382-2.2 2.69-3.468 3.814l-.213.189-.074.275c-.423 1.576-.675 3.167-.919 4.705-.281 1.767-.545 3.438-1.047 5.106-1.34 2.565-1.146 5.635-.976 8.347.036.564.071 1.12.092 1.661l.006.17.065.157c.117.283.229.623.347.983.498 1.517 1.25 3.808 3.635 3.808.11 0 .224-.005.341-.016l.34-.031.242-.24c.201-.2.486-.392.789-.592.414-.276.883-.588 1.256-1.017l.205-.235.024-.312c.059-.752-.255-1.328-.507-1.791a11.211 11.211 0 0 1-.101-.188c.007-.033.017-.066.025-.1.022-.095.049-.207.067-.333 1.199-1.475 1.742-3.218 2.266-4.907.491-1.578.957-3.075 1.923-4.247 2.685-.376 5.797-.746 8.834-.746.421 0 .837.006 1.245.021.015.052.033.106.053.162-.055 1.115-.039 2.224-.023 3.298.016 1.099.031 2.236-.031 3.342l-.004.087.011.086c.454 3.565 2.227 6.567 3.94 9.471.583.987 1.185 2.008 1.714 3.019l.298.569.639-.064c.136-.014.271-.021.405-.021 1.129 0 2.238.456 3.414.939 1.262.52 2.566 1.057 4.002 1.057.609 0 1.208-.101 1.78-.298l.08-.027.073-.041c.958-.533 1.727-1.514 2.285-2.91.071-.181.222-.396.381-.626.424-.609 1.064-1.53.607-2.672l-.026-.064-.035-.061c-.733-1.261-1.941-1.899-3.589-1.9-.417 0-.87.042-1.377.126a4.03 4.03 0 0 1-.199-.443c-.035-.087-.07-.174-.106-.259-.009-.136-.013-.271-.017-.405-.012-.397-.026-.84-.149-1.307.365-3.404-.273-6.735-.89-9.959-.242-1.261-.491-2.566-.67-3.835l-.017-.116-.043-.108c-.347-.855-.485-1.791-.632-2.782-.157-1.065-.32-2.165-.758-3.237l-.057-.14-.099-.116c-.493-.579-1.15-.673-1.592-.732-.165-1.063-.178-2.165-.191-3.321-.014-1.207-.028-2.454-.229-3.692-.096-.536-.195-1.056-.294-1.578-.191-.999-.389-2.033-.533-3.035l-.011-.077-.023-.073c-.81-2.57-2.243-6.272-5.309-8.749l-.117-.094-.14-.054a2.89 2.89 0 0 1-.459-.266c-.408-.265-.918-.594-1.575-.594zm-4.392 13.034c.547-1.521 1.322-2.833 2.146-3.655 1.398 1.061 2.394 2.795 2.728 4.788l-.012.035c-.02.062-.042.129-.065.208l-.071.24.057.244c.503 2.142.341 4.494.184 6.769-.021.299-.042.598-.061.895-1.394.374-2.878.538-4.438.711-.781.086-1.584.176-2.378.293.103-.152.222-.309.331-.454.315-.417.673-.891.856-1.437l.049-.137c.177-.498.344-.969.577-1.401l.039-.071.026-.077c.132-.394.204-.774.273-1.143.079-.422.154-.821.312-1.149l.112-.23-.02-.255a15.145 15.145 0 0 1 .005-2.303l.02-.255-.112-.23a11.323 11.323 0 0 0-.205-.397c-.228-.429-.356-.686-.353-.989zm54.045-12.192c-.187 0-.378.016-.564.032-.081.007-.159.015-.236.019l-.167.01-.154.066c-.574.248-1.171.465-1.804.694-1.947.707-3.961 1.437-5.434 3.151l-.189.22-.034.288c-.156 1.343-.403 2.68-.664 4.097-.356 1.932-.724 3.929-.839 5.922-.095 1.628-.547 4.063-1.264 6.03-.245-.23-.481-.524-.725-.827-.278-.345-.565-.7-.902-1.016l-.072-.067-.083-.051c-3.07-1.864-5.321-4.524-7.703-7.341l-.169-.199a6.25 6.25 0 0 0-.354-.703c-.019-.384-.011-.781-.003-1.198.015-.792.032-1.613-.14-2.453l-.031-.154-.08-.137c-.172-.292-.596-.784-1.505-.784-.265 0-.516.042-.705.078l-.345.067-.218.274c-.511.642-1.109 1.228-1.742 1.848-.878.86-1.785 1.75-2.493 2.837l-.229.352.107.405c.543 2.071.319 4.222.082 6.498-.211 2.027-.43 4.12-.08 6.214-.199.794-.252 1.507-.159 2.168-.182.937-.288 1.98-.317 3.105-.706 4.084-1.027 8.243-.926 12.03l.005.164.059.152c.716 1.857 2.727 3.313 4.578 3.313l.068-.001.405-.008.275-.296.061-.066c1.167-1.265 2.492-2.698 3.524-4.19l.165-.239.004-.29a2.17 2.17 0 0 0-.646-1.583c-.508-.514-1.283-.822-2.071-.822-.063 0-.125.002-.187.006a6.62 6.62 0 0 1-.026-.306c-.013-.178-.027-.374-.061-.576.227-2.632.775-5.308 1.306-7.896.357-1.746.728-3.551 1.001-5.347.095-.658.052-1.341.012-2-.034-.557-.068-1.097-.018-1.551.092.125.188.268.294.427.245.368.521.781.894 1.132.467.719 1.004 1.382 1.524 2.026.685.847 1.332 1.646 1.809 2.537l.102.189.172.127c.227.167.422.412.648.697.21.265.444.56.743.83 4.185 8.058 8.131 16.798 8.805 26.149l.05.693.676.161c.564.134 1.155.255 1.757.378 3.072.63 6.25 1.281 7.469 4.105l.231.537.584.033c.06.004.119.006.178.006 1.654 0 2.958-1.281 4.014-2.533l.155-.184.049-.235c.09-.435.104-.856.044-1.289l-.012-.089-.029-.084-1.26-3.736c-1.618-4.803-3.29-9.768-5.016-14.576-1.318-5.802-1.634-11.698-.916-17.057.189-.878.362-1.75.534-2.622.185-.934.376-1.897.585-2.851a9.88 9.88 0 0 0 .541-1.919c.09-.271.229-.582.377-.908.496-1.099 1.175-2.605.294-3.953l-.222-.341-.4-.073c-.28-.052-.551-.057-.789-.062l-.13-.002c-.097-.771-.086-1.601-.074-2.468.02-1.405.039-2.857-.422-4.193l-.115-.333-.304-.177c-.321-.19-.7-.281-1.153-.281zm144.207 4.025c-.382 0-.732.104-.963.183l-.333.114-.179.305c-.667 1.139-.184 2.224.168 3.015.148.333.263.598.313.818-1.132.194-2.199.575-3.238.954-.617-.401-1.107-1.041-1.621-1.712-.473-.617-.961-1.254-1.595-1.775l-.316-.26-.408.052c-.509.067-1.041.098-1.626.098-1.207 0-2.409-.136-3.683-.28-1.275-.145-2.594-.294-3.921-.294h-.133l-.108.001-.105.025-.242.058c-1.697.407-3.452.827-4.978 1.857l-.391.263-.025.471a228.1 228.1 0 0 0-.167 3.285c-.19.721-.574 1.379-.978 2.075-.389.667-.789 1.357-1.056 2.157l-.019.057-.012.06c-.089.445-.112.873-.136 1.287-.02.333-.037.647-.087.939l-.03.176.036.175c.065.324.105.673.146 1.042.11.982.235 2.094.938 3.067.528.819 1.692 1.817 2.82 2.782.437.373.998.855 1.294 1.148l-.475-.054c-.039-.004-.969-.108-1.806-.108-.739 0-1.194.078-1.519.26-.582.337-.899.837-1.155 1.238-.211.333-.35.541-.527.625-.794.368-1.787.459-2.838.555-1.819.167-3.882.356-5.206 2.187l-.105.146-.044.175c-.801 3.119-.744 5.539.172 7.399l.166.335.351.133c2.309.87 4.755 1.814 7.062 2.942 2.903 1.645 4.722 4.548 6.2 7.141l.066.116.095.092c.229.225.445.47.673.729.429.487.872.992 1.466 1.423l.154.113.188.043c.135.032.273.049.408.049.815 0 1.318-.545 1.651-.904.041-.045.083-.09.124-.132 2.775-1.961 5.623-2.755 8.915-3.674l.412-.115.249.001c2.006 0 3.698-.222 5.173-.678l.103-.031.092-.053c.426-.245.888-.483 1.376-.735 2.231-1.147 5.008-2.576 5.354-5.683l.011-.103-.01-.102c-.059-.56-.078-1.12-.099-1.712-.045-1.297-.091-2.638-.569-3.991l-.02-.053-.023-.05c-.073-.148-.14-.297-.207-.446-.181-.402-.365-.816-.653-1.225-.187-.306-.413-.542-.614-.75-.181-.186-.351-.363-.397-.503l-.079-.246-.193-.17c-1.584-1.401-2.966-3.064-4.302-4.673-1.431-1.723-2.909-3.504-4.675-5.026l-.029-.025-.029-.021c-1.297-.952-2.714-1.646-4.086-2.318-1.567-.767-3.051-1.493-4.321-2.559a4.846 4.846 0 0 0-.416-.63 4.124 4.124 0 0 1-.253-.369c.035-.211.166-.47.302-.741l.025-.051c.788-.584 1.654-.941 2.301-.941.53 0 .898.221 1.195.717l.192.323.362.103c.457.129.903.282 1.377.444l.046.017c.127.154.24.378.359.612.276.547.621 1.228 1.402 1.603l.039.019.041.015c.634.235 1.326.35 2.113.35.895 0 1.762-.146 2.601-.286l.438-.073c.575.051 1.178.076 1.835.076.908 0 1.807-.047 2.644-.099l.264-.017.217-.15.28-.189c.546-.361 1.225-.812 1.639-1.556l.109-.195.011-.223c.166-3.648-1.805-7.078-3.756-9.951l-.14-.206-.223-.111a1.872 1.872 0 0 0-.849-.196zm-22.606 29.306c-.358-1.505.426-2.789 1.331-4.27.311-.508.632-1.033.906-1.578l.33-.654c1.218.967 2.553 1.812 3.847 2.63 2.53 1.601 4.924 3.115 6.503 5.464.065.392.119.741.052 1.025-.465.327-1.21.439-1.994.558-.724.108-1.469.22-2.124.526-.788.104-1.789.216-2.795.216-2.301 0-3.873-.569-4.943-1.787-.337-.504-.602-1.061-.883-1.649-.076-.16-.152-.321-.23-.481zm-17.08-26.017c-3.773 0-7.616.375-11.423 1.116l-.057.011-.055.018a6.697 6.697 0 0 0-2.674 1.658l-.195.081c-.69.284-2.521 1.036-1.878 2.788l.148.404.404.155c.564.216 1.16.245 1.667.245.131 0 .264-.002.396-.004l.372-.003c.504 0 .908.033 1.228.195.984.663 1.693 1.73 1.886 2.828-.077.306-.179.619-.284.948a15.29 15.29 0 0 0-.357 1.228c-.322.455-.644.935-.954 1.4-1.716 2.563-3.49 5.213-6.447 5.453h-.074c-1.088 0-2.345-.062-3.456-.517-.342-.258-.502-.752-.577-1.179.017-.094.032-.197.05-.307l.024-.158c1.744-3.748 2.273-8.319 1.449-12.564l-.07-.365-.301-.219c-.103-.076-.245-.231-.383-.381-.417-.455-.988-1.077-1.872-1.077-.242 0-.486.05-.725.149l-.186.076-.138.145c-2.354 2.463-4.912 5.479-6.042 9.183-.387 1.069-.859 2.097-1.358 3.185-.489 1.064-.995 2.164-1.408 3.299l-.049.133-.007.141c-.065 1.159-.108 2.294.057 3.427l.015.098.034.092c.354.96.837 1.817 1.304 2.646.33.586.643 1.139.908 1.722l.084.184.152.134c2.355 2.073 5.522 3.125 9.414 3.125 1.694 0 3.51-.201 5.409-.597.786 3.64 3.791 6.168 6.469 8.421.487.409.968.814 1.427 1.218l.2.176.264.047c.254.044.485.065.706.065.297 0 .574-.041.826-.12l.456-.145.154-.454c.322-.944 1.116-1.606 1.956-2.309.299-.249.607-.507.895-.778l.159-.151.077-.204c.209-.557.067-1.037-.068-1.371.615-.177 1.268-.294 1.947-.417.568-.103 1.157-.208 1.738-.354l.45-.112.187-.425c.336-.761.325-1.568.315-2.347-.009-.601-.016-1.167.14-1.63l.058-.172-.011-.183c-.01-.186-.006-.371-.003-.558.002-.166.005-.332.001-.498.215-1.006.303-1.852.27-2.63 2.061-5.61 2.242-11.497 2.159-16.038.025-.124.047-.25.068-.376.01-.057.02-.113.028-.167.748-.235 1.661-.652 2.092-1.614l.042-.093.021-.1c.198-.944-.29-1.786-.581-2.288l-.06-.104-.086-.086c-.748-.759-1.605-1.332-2.435-1.885-.49-.327-.953-.636-1.388-.977l-.242-.19-.31-.01c-.643-.026-1.3-.037-1.952-.037zm-58.688 2.418c-.535 0-1.036.083-1.544.173l-.227.041-.184.141c-.402.309-.832.612-1.267.92-1.571 1.111-3.333 2.356-4.282 4.18l-.081.003c-.523.016-1.116.033-1.723.208l-.155.044-.131.093c-2.174 1.537-4.214 3.682-5.9 6.2l-.137.205-.019.245c-.036.423.031.849.195 1.232l.134.319.308.156c.491.249 1.04.376 1.633.376.826 0 1.624-.236 2.396-.465.426-.126.837-.247 1.227-.322a85.472 85.472 0 0 1-.582 1.946l-.191.624c-2.36 1.22-4.273 3.151-5.893 4.882l-.245.262-.01.358c-.011.367-.01.758.077 1.122l.065.272.203.193c.413.395.922.594 1.514.594.445 0 .867-.113 1.239-.214l.197-.052-.122.157c-.205.26-.437.556-.615.896-.383.662-.71 1.34-1.028 1.997-.147.305-.294.607-.445.908l-.061.122-.025.133c-.021.115-.08.256-.147.418-.085.206-.18.437-.242.707-.051.116-.118.249-.188.389-.388.775-.87 1.74-.534 2.633.116.307.379.724.975.967l.287.116.301-.076c.207-.052.407-.077.595-.077 1.285 0 2.179 1.29 3.125 2.656.333.479.676.975 1.038 1.404l.281.334.436.004h.065c2.039 0 3.808-.885 5.518-1.741.849-.425 1.652-.826 2.472-1.117 1.121-.342 2.32-.831 3.732-1.523.073-.007.154-.009.228-.009l.154.002.129.001c.302.077.606.174.928.276.296.093.592.188.891.269.922.217 1.797.256 2.644.295.437.02.851.039 1.262.08l.101.01.102-.012a22.784 22.784 0 0 1 2.644-.145c2.585 0 5.22.38 7.768.746 1.222.177 2.486.359 3.729.497l.24.027.224-.092c.149-.062.363-.072.611-.085.212-.011.452-.022.706-.069l.224-.042.182-.14c.898-.692 2.02-.986 3.207-1.299.832-.218 1.692-.444 2.51-.821l.491-.227.056-.538c.166-1.64-.644-3.437-1.973-4.369l-.267-.188-.326.017a3.367 3.367 0 0 1-.174.004c-.229 0-.472-.02-.728-.042-.28-.023-.57-.047-.876-.047-.274 0-.527.021-.768.062a37.687 37.687 0 0 0-5.576-.399c-3.291 0-6.873.379-10.945 1.158-.954-.036-1.848-.5-2.792-.989-.803-.417-1.632-.847-2.58-1.07-.634-.381-1.299-.658-1.944-.925-.748-.311-1.462-.608-2.062-1.041.083-.106.198-.235.279-.325.223-.248.474-.527.643-.861a5.64 5.64 0 0 0 .458-.862c.094-.204.183-.397.282-.553 1.522-.848 3.281-1.278 5.229-1.278 1.307 0 2.698.193 4.139.574.097.039.196.087.296.135.377.18.846.403 1.396.403.302 0 .591-.067.86-.201l.119-.06.1-.09c1.158-1.056 1.067-2.549.994-3.749-.02-.315-.038-.614-.032-.878l.002-.096-.018-.093c-.299-1.636-1.48-3.032-3.082-3.642l-.067-.025-.069-.016a7.345 7.345 0 0 0-1.535-.16c-1.392 0-2.706.361-3.976.711-.851.233-1.666.458-2.461.564-.08-.576.01-1.278.097-1.964l.039-.308c.368-.112.785-.167 1.22-.226.506-.067 1.029-.138 1.554-.302 1.221-.058 2.475-.221 3.688-.38 1.495-.195 3.041-.397 4.512-.397 1.873 0 3.362.322 4.687 1.015l.133.07.148.025c.224.038.456.055.731.055.182 0 .363-.008.544-.017l.166-.007.354-.014.258-.244c.136-.128.278-.259.424-.394 1.5-1.383 3.552-3.276 3.051-5.849-.128-.939-.84-1.482-1.313-1.845a11.037 11.037 0 0 1-.225-.176l-.171-.139-.214-.049c-.429-.1-.851-.267-1.298-.442-.514-.202-1.044-.41-1.637-.541l-.101-.022h-.104c-2.305.002-4.978.021-7.542.23-1.718.075-3.323.651-4.877 1.208-1.551.557-3.016 1.083-4.517 1.083l-.189-.002a20.52 20.52 0 0 1-.02-.377c-.03-.728-.069-1.633-.71-2.408l-.065-.079-.081-.064a8.315 8.315 0 0 1-.187-.152c-.219-.182-.466-.386-.779-.545l-.104-.054-.114-.026a4.642 4.642 0 0 0-.97-.099zm39.081 34.981h-.027l-.036.002-.485.029-.26.409c-.471.742-.525 1.622-.573 2.399-.05.804-.093 1.498-.515 1.949-.32.357-.658.57-.954.609-2.109-1.307-4.484-1.479-6.339-1.479-.794 0-1.599.034-2.377.067-.751.032-1.526.065-2.268.065-.731 0-1.361-.032-1.925-.1l-.371-.044-.301.22c-.289.211-.635.309-1.092.309-.63 0-1.35-.189-2.046-.374-.377-.099-.768-.202-1.138-.271l-.533-.102-.357.409a9.34 9.34 0 0 0-.397.495c-.248.321-.467.605-.717.767a4.734 4.734 0 0 1-.207.004c-.706 0-1.485-.149-2.31-.308-.888-.172-1.807-.349-2.717-.349-1.399 0-2.521.433-3.407 1.318-1.075-.323-1.997-.477-2.864-.477-.588 0-1.156.073-1.688.218l-.336.091-.198.288c-.24.35-.359.817-.329 1.284l.019.279.169.226c.576.772 1.49.86 2.095.919l.083.009c1.159.872 2.595 1.314 4.272 1.314a9.89 9.89 0 0 0 1.138-.066c.972.4 1.97.557 2.937.709 1.069.167 2.083.325 2.946.803l.051.061c.271.326.579.694.987.993l.165.12.2.042c.23.048.468.073.705.073.946 0 1.773-.378 2.502-.711.377-.172.74-.338 1.076-.431.018.37.021.754.025 1.151.008.648.016 1.319.084 1.968l.003.026.004.025c.364 2.264.359 4.709.354 7.075-.009 4.598-.019 9.353 2.541 13.502l.192.309.348.103c.185.055.385.083.582.083.359 0 .694-.095.967-.271l.309-.201.093-.355c1.728-6.632 2.69-12.387 2.94-17.593.109-.471.205-.948.303-1.429.269-1.33.522-2.594 1.036-3.745a17.554 17.554 0 0 1 3.59-.381c2.093 0 3.957.416 5.466 1.211l-.232.106c-.401.183-.853.387-1.26.701-.812.394-1.612.825-2.388 1.244-1.011.547-2.058 1.111-3.105 1.576l-.222.098-.146.193c-.206.269-.349.619-.423 1.041l-.033.192.032.137-.004.008c-.226.341-.753 1.137-.154 2.01l.15.221.243.108c.264.118.55.179.851.179.35 0 .669-.08.959-.168-.082.351-.17.706-.258 1.07-.937 3.856-1.998 8.227.088 12.088l.086.157.137.115c.272.23.707.378 1.105.378.218 0 .419-.042.597-.128l.198-.094.136-.172.055-.066c.071-.085.142-.172.2-.26l.128-.19.025-.229.013-.096c.01-.077.021-.162.028-.25 1.033-1.308 1.419-2.885 1.791-4.415.151-.619.297-1.219.481-1.78.297.26.59.574.892.897.501.537 1.018 1.092 1.658 1.527.642.575 1.223 1.231 1.838 1.926.944 1.068 1.92 2.171 3.168 3.004.4.449.901.739 1.388.985l.165.085.185.015a3.13 3.13 0 0 0 1.296-.157c.521.069 1.074.228 1.655.395.856.245 1.741.499 2.658.499.322 0 .634-.033.929-.097l.84-.183-.099-.854c-.241-2.067-1.79-3.628-3.157-5.005-.307-.309-.606-.61-.882-.908-.576-.738-1.255-1.372-1.955-2.009-.742-.701-1.59-1.345-2.412-1.967-.741-.563-1.454-1.104-2.083-1.677.279-.179.59-.297.888-.325l.191-.018.168-.092c.596-.321 1.04-.78 1.433-1.185.382-.393.711-.732 1.095-.885l.046-.018c-.253.918.078 1.879.335 2.627.07.203.138.399.189.586l.042.151.089.131c.311.455.607.923.904 1.391.778 1.23 1.583 2.501 2.669 3.589l.068.068.08.053c1.998 1.32 5.054 3.076 8.508 3.076.6 0 1.203-.053 1.791-.157l.208-.037.174-.122c.875-.619 1.976-.862 3.142-1.121.428-.094.87-.192 1.308-.311l.19-.052.153-.123c.693-.555.999-1.308 1.27-1.973.106-.262.207-.511.322-.721.542-.592 1.138-1.134 1.767-1.706 1.144-1.039 2.325-2.112 3.182-3.525l.059-.096.034-.107c.048-.148.084-.304.119-.459l.014-.061c.183-.058.36-.119.536-.18.175-.061.348-.119.516-.172.009.533-.056 1.125-.121 1.737-.063.594-.13 1.207-.131 1.808v.032l.001.031c.034.52.082 1.021.131 1.526.04.409.08.82.111 1.243l.018.24.13.202c.021.034.057.152.083.237.074.244.175.58.433.892l.392.475.593-.164a.853.853 0 0 1 .217-.037c.075.036.212.248.302.388.142.219.302.467.526.71l.305.333.451-.028c.423-.025.789-.146 1.112-.254.266-.088.495-.164.685-.164h.212l.197-.091c.612-.288 1.245-.514 1.917-.753.667-.237 1.356-.482 2.034-.798a2.24 2.24 0 0 0 .167-.033c-2.216 3.85-4.04 7.992-5.857 12.242l-.111.261.05.28c.334 1.851-.029 3.682-.414 5.62-.398 2.005-.811 4.079-.443 6.276l.01.055.015.053c.379 1.308 1.327 2.438 2.63 3.15.021.08.039.165.059.254.099.449.222 1.01.68 1.5.823.825 1.829 1.215 3.1 1.215.729 0 1.454-.123 2.156-.242.645-.109 1.252-.212 1.804-.212.079 0 .157.002.235.007l.269.017.238-.128c5.893-3.169 10.76-7.826 14.073-13.467l.017-.029.015-.029.054-.109c.282-.568.562-1.129.855-1.693l.035-.067.023-.071c.03-.091.114-.249.193-.401.296-.563.987-1.883-.181-2.757l-.19-.143-.235-.035a2.763 2.763 0 0 0-.441-.041 1.74 1.74 0 0 0-.25.017l-.354.051-.233.27c-.969 1.126-1.94 2.348-2.88 3.529-3.953 4.972-8.039 10.108-14.161 11.4-.14-.104-.281-.202-.42-.3-.402-.279-.786-.547-.985-.839.471-1.122.74-2.366 1.003-3.575.593-2.729 1.104-5.088 3.585-5.87l.642-.203.021-.674a39.79 39.79 0 0 0-.018-2.21c-.039-1.475-.079-2.996.21-4.398 1.001-1.726 2.431-3.118 3.942-4.59.688-.67 1.398-1.361 2.063-2.087l.09-.097.06-.119c.365-.73.745-1.455 1.125-2.182 1.183-2.26 2.405-4.597 3.208-7.088l.036-.113.008-.118c.148-2.341.177-4.718.202-7.016.023-2.014.048-4.096.154-6.137l.035-.678-.631-.252a2.648 2.648 0 0 0-.989-.19c-1.089-.001-2.025.655-2.853 1.233-.471.329-.915.641-1.311.787-.583.218-1.147.469-1.691.712-.666.296-1.295.576-1.945.796-.48.084-.939.197-1.385.308-.515.128-1.002.248-1.493.316-1.229-.129-2.096-.448-2.723-.997l-.631-.555-.626.56-.561.5-.502.448.258.621c.959 2.324 3.35 3.605 6.732 3.605.894 0 1.838-.097 2.729-.279l.065-.013.063-.022c.388-.139.727-.33 1.056-.515l.168-.095-.062.185c-.105.31-.214.629-.273.97-1.506 3.949-5.128 7.009-9.493 8.022-.073-.005-.146-.009-.218-.016-.307-.146-.618-.316-.798-.533-.725-1.537-.961-4.021-.102-5.6.012-.013.095-.08.154-.129.285-.235.816-.672.8-1.492l-.002-.102-.024-.1-.013-.054c-.026-.111-.055-.227-.084-.364l-.145-.669-.682-.073a10.22 10.22 0 0 0-1.085-.058c-2.563 0-4.989.932-7.333 1.832-1.337.514-2.604 1-3.88 1.321-.887-.393-1.607-1.053-2.366-1.748a23.557 23.557 0 0 0-1.122-.986l-.128-.104-.155-.054c-.705-.247-1.46-.363-2.375-.363-.544 0-1.08.04-1.6.079-.508.038-.987.074-1.463.074-.146 0-.282-.004-.414-.011a1.907 1.907 0 0 0-.573-.396l-.256-.113-.276.044c-1.434.228-2.641.886-3.808 1.522-.957.522-1.862 1.017-2.836 1.245l-.177.041-.149.105c-.62.434-1.283.799-1.984 1.185-.725.397-1.471.809-2.177 1.308h-.017l-.041-.001-.016.001a2.491 2.491 0 0 0-.5.043c.123-.106.253-.214.384-.322.924-.764 2.073-1.713 1.902-3.323l-.02-.188-.09-.166c-.729-1.341-2.037-2.12-3.205-2.746-.873-.516-2.375-.787-4.43-.787-.275 0-.536.005-.774.013.054-4.657-2.271-8.809-4.038-11.545l-.104-.162-.16-.108c-.03-.007-.583-.378-1.076-.378zm24.585 27.085c-1.918-.028-3.543-1.146-4.154-2.865-.244-.684-.149-1.354.279-1.988.575-.854 1.676-1.502 2.759-1.65.862.729 1.463 1.862 1.663 3.158.191 1.233-.008 2.427-.547 3.345zm-74.291-21.586l-.332.053c-1.466.232-1.759 1.593-1.936 2.405-.059.273-.12.557-.2.727l-.048.102-.023.11a31.103 31.103 0 0 0-.66 6.468c-.015.078-.026.156-.037.233a1.514 1.514 0 0 1-.044.238l-.179.283.042.328c.073.631.077 1.124.01 1.548-.455.294-.953.589-1.473.898-2.938 1.741-6.593 3.909-5.905 8.222l.015.097.034.091c.061.158.083.366.107.605.018.166.036.333.064.498l.039.225.088.117c.004.041.004.084.006.126.01.222.023.525.168.847.626 1.599 2.075 2.037 3.238 2.389.383.116.745.226 1.046.365l.102.048.11.022c.197.04.402.061.606.061.69 0 1.288-.226 1.817-.424.235-.088.459-.172.671-.229.704.233 1.67.473 2.671.473.712 0 1.354-.123 1.909-.364l.523-.228.043-.569c.101-1.324-.06-2.619-.216-3.87-.17-1.366-.331-2.657-.164-3.936l.013-.098-.007-.097c-.32-4.241.237-8.679.776-12.97.075-.601.15-1.198.222-1.795l.036-.285-.13-.256c-.533-1.059-1.59-1.656-2.439-2.136l-.273-.155-.29-.167zm-4.651 21.534a1.718 1.718 0 0 1-.309-.748c-.034-.22-.046-.638.238-.974.208-.23.598-.666.999-.972a13.796 13.796 0 0 1-.44 2.612 7.105 7.105 0 0 1-.488.082zm16.139-10.941l-.258.104c-4.431 1.797-8.934 6.662-8.548 12.14l.005.069.015.068c.093.421.21.87.441 1.295l.03.057.039.053c.841 1.146 2.076 1.95 3.388 2.204l.092.019.093-.001c.271-.001.544-.008.816-.014.294-.008.589-.015.882-.015.155 0 .31.002.463.007l.172.007.164-.056c.293-.1.59-.19.886-.281.786-.241 1.6-.49 2.393-.897l.085-.043.073-.06c.3-.238.714-.458 1.151-.69 1.124-.598 2.523-1.341 2.764-2.957l.062-.42-.272-.326c-.731-.877-1.594-1.32-2.562-1.32-1.278 0-2.446.769-3.576 1.511-.612.404-1.239.817-1.808 1.042.131-.466.502-1.082 1.052-1.718 2.287-.889 4.838-1.922 6.654-4.095l.253-.303-.036-.394c-.016-.151-.004-.331.008-.523.022-.367.049-.826-.089-1.313l-.032-.116-.061-.104c-.832-1.431-2.501-2.507-4.464-2.878l-.275-.052z"/></svg>