<svg version="1.2" baseProfile="tiny" xmlns="http://www.w3.org/2000/svg" width="427" height="145"><path fill="#FFDA00" d="M56.515 38.386l-.025-20.119-.012-.096.015-.156a1.855 1.855 0 0 0-.649-1.24 1.95 1.95 0 0 0-1.342-.507h-1.413l-.042-1.332h9.279l.042 1.332h-3.489v17.674h8.006c.553 0 1.023-.194 1.436-.592.406-.394.594-.851.573-1.398l-.037-1.43h1.337l-.002 5.459H59.807c-.55 0-1.012.202-1.41.617-.401.416-.591.917-.583 1.534l.003.253h-1.302z"/><path fill="#333" d="M62.083 15.187l.026.832h-3.481v18.174h8.256c.615 0 1.152-.221 1.609-.662.457-.442.673-.971.649-1.587l-.03-1.171h.831l-.002 4.959H59.807c-.616 0-1.146.231-1.59.694-.445.461-.662 1.031-.653 1.71h-.8l-.025-19.87-.013-.123a.472.472 0 0 0 .015-.155 2.107 2.107 0 0 0-.732-1.401 2.208 2.208 0 0 0-1.508-.57h-1.17l-.026-.832h8.778m.485-.498h-9.78l.017.516.026.832.015.484H54.5c.453 0 .838.146 1.177.445.335.297.521.649.565 1.078l-.019.081.004.075.01.096.025 19.843v.5h1.806l-.006-.506c-.007-.548.161-.992.513-1.356.35-.365.752-.542 1.23-.542h10.634v-.5l.002-4.959v-.5H68.6l.013.513.03 1.171c.018.478-.145.873-.498 1.215-.363.35-.776.521-1.261.521h-7.756V16.519h3.497l-.016-.516-.026-.832-.015-.484z"/><path fill="#FFDA00" d="M78.913 36.352c-1.916 0-3.556-.504-4.877-1.498-1.333-1.003-2.108-2.45-2.303-4.301a6.137 6.137 0 0 1-.03-.899 6.601 6.601 0 0 1 .491-2.627 6.757 6.757 0 0 1 1.421-2.158 6.605 6.605 0 0 1 2.088-1.44 6.294 6.294 0 0 1 2.527-.513c.871 0 1.68.151 2.406.449.724.3 1.351.706 1.864 1.208.511.502.92 1.058 1.217 1.653.298.601.49 1.197.571 1.772l.031.218-10.279 2.796c.285 1.085.856 1.98 1.702 2.663.902.729 2.056 1.099 3.428 1.099.595 0 1.184-.07 1.752-.208.566-.138 1.017-.306 1.339-.496l.272-.162.49 1.575-.22.083c-.659.249-1.297.443-1.899.579a9.009 9.009 0 0 1-1.991.207zm-.938-11.273c-1.056 0-2.013.417-2.844 1.237-.842.832-1.249 1.896-1.244 3.255a3.902 3.902 0 0 0 0 .153l4.866-1.651c.824-.277 1.381-.519 1.657-.719.228-.167.33-.36.319-.605-.039-.363-.296-.741-.764-1.106-.478-.375-1.148-.564-1.99-.564z"/><path fill="#333" d="M78.23 23.166c.842 0 1.612.144 2.311.431a5.538 5.538 0 0 1 1.784 1.155 5.928 5.928 0 0 1 1.168 1.586 5.57 5.57 0 0 1 .547 1.695l-10.301 2.802c.275 1.254.89 2.265 1.844 3.035.953.77 2.148 1.154 3.585 1.154.617 0 1.22-.071 1.811-.215.59-.145 1.06-.318 1.407-.524l.326 1.048c-.652.246-1.274.436-1.866.569-.591.134-1.237.2-1.935.2-1.869 0-3.444-.482-4.727-1.447-1.283-.965-2.017-2.342-2.205-4.128a5.91 5.91 0 0 1-.029-.862 6.35 6.35 0 0 1 .472-2.542 6.48 6.48 0 0 1 1.368-2.078 6.322 6.322 0 0 1 2.01-1.387 6.06 6.06 0 0 1 2.43-.492m-4.572 6.899l5.175-1.756c.853-.287 1.427-.539 1.723-.754.295-.217.436-.488.422-.817-.048-.451-.335-.883-.86-1.293-.525-.411-1.24-.616-2.144-.616-1.129 0-2.136.437-3.02 1.31-.884.873-1.323 2.017-1.318 3.434a4.06 4.06 0 0 0 .022.492m4.572-7.399c-.928 0-1.812.18-2.627.534a6.855 6.855 0 0 0-2.167 1.495 6.992 6.992 0 0 0-1.473 2.237 6.869 6.869 0 0 0-.51 2.74c-.012.279-.001.594.032.908.202 1.923 1.01 3.429 2.401 4.475 1.365 1.027 3.056 1.548 5.027 1.548.734 0 1.422-.071 2.045-.212a14.822 14.822 0 0 0 1.932-.589l.441-.167-.14-.45-.326-1.048-.188-.604-.544.323c-.301.178-.729.336-1.271.469a7.186 7.186 0 0 1-1.692.201c-1.313 0-2.414-.351-3.271-1.043a4.61 4.61 0 0 1-1.549-2.293l9.823-2.672.425-.116-.062-.437a6.094 6.094 0 0 0-.594-1.848 6.468 6.468 0 0 0-1.265-1.72 6.083 6.083 0 0 0-1.944-1.261c-.758-.313-1.599-.47-2.503-.47zm-4.091 6.708c.036-1.2.418-2.14 1.167-2.879.793-.784 1.666-1.166 2.668-1.166.786 0 1.403.171 1.835.51.413.322.638.643.671.952.002.085-.021.214-.221.362-.173.125-.591.348-1.587.683l-4.533 1.538z"/><path fill="#FFDA00" d="M91.592 36.507a10.85 10.85 0 0 1-2.638-.347 12.582 12.582 0 0 1-2.566-.943l-.138-.069-.005-3.67h1.259l.04.792c.08.758.483 1.379 1.232 1.885.761.513 1.701.773 2.796.773 1.016 0 1.846-.195 2.468-.579.592-.364.878-.889.876-1.604-.065-.606-.286-1.053-.676-1.34-.399-.294-.979-.443-1.721-.443h-2.033c-1.337 0-2.349-.347-3.005-1.032-.648-.674-1.03-1.521-1.135-2.518l-.036-.339a4.164 4.164 0 0 0-.001-.314c-.012-1.165.477-2.124 1.451-2.869.951-.729 2.199-1.098 3.708-1.098.873 0 1.648.053 2.303.156.65.103 1.37.26 2.139.468l.439.106-.027 4.02h-1.271l.004-.806-.013-.12.018-.119c-.066-.617-.441-1.119-1.146-1.513a4.874 4.874 0 0 0-2.395-.614c-1.001 0-1.786.234-2.332.695-.539.458-.799.954-.793 1.517l.015.171-.011.186c.051.459.272.833.675 1.102.42.278 1.053.419 1.881.419h1.818c1.336 0 2.369.356 3.069 1.06.692.696 1.098 1.565 1.204 2.583.008.074.007.172-.004.295l.025.196c-.018 1.114-.52 2.044-1.489 2.797-.954.741-2.294 1.116-3.985 1.116z"/><path fill="#333" d="M91.466 23.042c.862 0 1.617.051 2.264.153.648.103 1.352.257 2.113.462l.252.062-.024 3.573H95.3l.003-.555-.012-.124a.515.515 0 0 0 .017-.122c-.075-.719-.501-1.294-1.274-1.726a5.094 5.094 0 0 0-2.517-.646c-1.067 0-1.898.252-2.493.754-.594.504-.888 1.073-.882 1.71l.016.153-.011.186c.06.575.323 1.017.786 1.325.465.308 1.138.461 2.02.461h1.818c1.273 0 2.237.329 2.892.986.654.657 1.032 1.468 1.133 2.433a1.4 1.4 0 0 1-.004.247l.026.246c-.018 1.007-.482 1.864-1.394 2.572-.911.708-2.188 1.063-3.83 1.063-.823 0-1.681-.113-2.577-.339a12.324 12.324 0 0 1-2.516-.925l-.005-3.266h.771l.028.555c.088.843.537 1.535 1.342 2.079.807.545 1.785.816 2.936.816 1.067 0 1.934-.205 2.599-.616.666-.41.998-1.017.995-1.817-.073-.698-.333-1.212-.777-1.54-.446-.328-1.067-.492-1.87-.492h-2.033c-1.273 0-2.215-.319-2.825-.955-.612-.637-.967-1.428-1.067-2.371a41.079 41.079 0 0 0-.036-.34 2.984 2.984 0 0 0-.001-.309c-.01-1.067.442-1.951 1.354-2.648.91-.696 2.095-1.045 3.554-1.045m0-.5c-1.565 0-2.863.387-3.86 1.15-1.04.795-1.562 1.821-1.55 3.05.006.088.006.17.001.285l-.001.036.004.037.035.333c.112 1.059.517 1.956 1.205 2.671.706.736 1.777 1.109 3.186 1.109h2.033c.688 0 1.217.133 1.573.395.324.239.512.62.574 1.164-.004.615-.246 1.05-.757 1.365-.582.36-1.368.542-2.337.542-1.044 0-1.938-.246-2.656-.731-.684-.462-1.052-1.023-1.125-1.717l-.025-.527-.024-.475H85.994l.001.5.005 3.266v.308l.276.138c.812.406 1.692.73 2.617.962.933.235 1.841.354 2.699.354 1.747 0 3.139-.393 4.137-1.168 1.032-.802 1.566-1.797 1.587-2.958v-.032l-.003-.032-.021-.191v-.006c.009-.12.007-.217 0-.292-.113-1.077-.542-1.997-1.276-2.734-.749-.752-1.841-1.134-3.246-1.134h-1.818c-.778 0-1.365-.127-1.744-.378-.33-.22-.508-.514-.56-.921l.008-.142.002-.042-.004-.042-.008-.076-.007-.076c-.002-.438.229-.871.708-1.277.499-.421 1.229-.635 2.169-.635a4.62 4.62 0 0 1 2.274.583c.609.34.941.763 1.013 1.292l-.011.051v.115l.012.124-.005.505-.002.502h1.77l.003-.497.024-3.573.002-.396-.384-.094-.252-.062a20.724 20.724 0 0 0-2.153-.47 15.297 15.297 0 0 0-2.341-.159z"/><path fill="#FFDA00" d="M128.529 36.845l-13.706-17.396-.014 13.204c.062.575.285 1.054.679 1.436.389.378.837.562 1.371.562h1.431l-.056 1.331h-8.849l.058-1.331h3.408l-.023-16.384-.011-.098.263-.18-.249.026a1.854 1.854 0 0 0-.65-1.24 1.95 1.95 0 0 0-1.342-.507h-1.413l-.042-1.332h5.031l12.949 16.352.033-13.023c-.062-.576-.281-1.056-.667-1.439a1.838 1.838 0 0 0-1.354-.559h-1.422l.008-1.332h8.716l.042 1.332h-3.335l-.025 20.577h-.831z"/><path fill="#333" d="M132.438 15.187l.026.832h-3.327l-.025 20.577h-.461L114.575 18.73l-.015 13.924c.069.656.321 1.195.755 1.616a2.14 2.14 0 0 0 1.544.632h1.17l-.035.831h-8.348l.036-.831h3.419l-.024-16.634-.012-.123a.5.5 0 0 0 .015-.155 2.108 2.108 0 0 0-.733-1.401 2.206 2.206 0 0 0-1.507-.57h-1.17l-.026-.832h4.652l13.318 16.818.035-13.739c-.069-.656-.316-1.195-.74-1.617a2.095 2.095 0 0 0-1.53-.631h-1.17l.005-.832h8.224m.484-.499H123.715l-.003.497-.005.832-.003.503h1.673c.462 0 .848.159 1.178.486.337.335.531.757.592 1.289l-.032 12.28-12.43-15.697-.15-.189h-5.41l.016.516.027.832.015.484h1.654c.453 0 .837.146 1.177.445.336.297.521.65.566 1.078l-.017.077.002.075.012.123.021 16.084H109.2l-.021.478-.036.831-.023.522h9.349l.02-.479.035-.831.022-.521H116.855c-.465 0-.856-.161-1.196-.49-.346-.335-.543-.755-.604-1.285l.014-12.457 13.185 16.735.15.19h1.204v-.5l.024-20.077h3.344l-.016-.516-.025-.832-.013-.483z"/><path fill="#FFDA00" d="M139.677 36.229c-1.977 0-3.674-.503-5.043-1.495-1.387-1.005-2.176-2.329-2.345-3.936a1.988 1.988 0 0 1 .003-.288l-.028-.244a5.601 5.601 0 0 1 .744-2.743c.479-.854 1.146-1.63 1.981-2.305a9.555 9.555 0 0 1 2.902-1.582 10.431 10.431 0 0 1 3.412-.569h4.316l-.005 9.585c.063.594.286 1.077.68 1.451.387.368.835.547 1.371.547h1.091l-.056 1.331h-1.904c-.957 0-1.766-.28-2.406-.834-.535.298-1.209.55-2.007.75-.879.221-1.789.332-2.706.332zm1.613-11.613c-.953 0-1.862.151-2.702.449-.839.297-1.572.707-2.177 1.218-.604.511-1.075 1.087-1.399 1.71-.32.618-.479 1.241-.472 1.854l.02.194c-.007.126-.011.182-.008.212.118 1.129.658 2.023 1.651 2.736.997.715 2.241 1.077 3.7 1.077 1.102 0 2.228-.279 3.349-.829l.018-8.291a6.491 6.491 0 0 0-1.98-.33z"/><path fill="#333" d="M145.369 23.318l-.005 9.335c.071.678.324 1.221.757 1.632a2.16 2.16 0 0 0 1.543.616h.831l-.035.831h-1.664c-.965 0-1.756-.297-2.374-.893-.54.328-1.241.601-2.101.816-.86.215-1.743.323-2.646.323-1.931 0-3.563-.481-4.896-1.447-1.333-.966-2.081-2.219-2.243-3.759a1.775 1.775 0 0 1 .004-.246c-.015-.144-.025-.235-.028-.277a5.324 5.324 0 0 1 .712-2.603c.467-.832 1.107-1.576 1.92-2.233.814-.657 1.756-1.171 2.826-1.54s2.181-.556 3.331-.556l4.068.001m-5.467 10.998c1.19 0 2.39-.308 3.598-.925l.019-8.625a6.772 6.772 0 0 0-2.229-.4c-.985 0-1.915.154-2.786.463-.871.309-1.623.729-2.254 1.263-.631.534-1.119 1.13-1.46 1.786-.342.658-.508 1.315-.5 1.972.003.042.011.113.021.216-.01.103-.012.175-.008.215.125 1.192.709 2.162 1.754 2.912 1.044.748 2.325 1.123 3.845 1.123m5.968-11.498h-4.566c-1.197 0-2.373.196-3.494.583a9.795 9.795 0 0 0-2.977 1.624c-.86.695-1.547 1.496-2.042 2.378a5.832 5.832 0 0 0-.776 2.843c.004.074.011.141.021.241l.005.052a2.101 2.101 0 0 0 0 .295c.176 1.671.999 3.055 2.446 4.103 1.413 1.023 3.159 1.542 5.19 1.542.938 0 1.868-.114 2.767-.338.747-.188 1.39-.42 1.917-.693.665.521 1.482.785 2.436.785h2.143l.02-.479.035-.831.022-.521H147.665c-.468 0-.86-.157-1.199-.479-.344-.326-.541-.75-.602-1.296l.005-9.308.001-.501zm-5.968 10.998c-1.405 0-2.601-.347-3.554-1.03-.931-.669-1.438-1.505-1.548-2.558 0-.019.003-.061.008-.115l.005-.048-.005-.049-.011-.102-.009-.099c-.006-.542.144-1.126.445-1.707.309-.595.76-1.145 1.339-1.635.582-.491 1.288-.886 2.099-1.173a7.822 7.822 0 0 1 2.619-.434c.554 0 1.134.089 1.729.265l-.017 7.949c-1.041.488-2.082.736-3.1.736z"/><path fill="#FFDA00" d="M156.207 36.507c-1.52 0-2.741-.467-3.629-1.387-.877-.909-1.393-2.052-1.534-3.396l-.036-.338a2.976 2.976 0 0 0-.005-.339l-.033-4.431-.011-.098.263-.18-.249.026a1.85 1.85 0 0 0-.65-1.239 1.947 1.947 0 0 0-1.342-.509h-1.042l-.042-1.331h5.466l.032 6.994c.009.065.011.191.005.35l.026.229c.119 1.13.498 2.007 1.133 2.651.634.644 1.402.957 2.348.957a6.15 6.15 0 0 0 2.361-.489 8.257 8.257 0 0 0 2.159-1.336l-.063-.608.017-5.419c-.062-.575-.279-1.053-.665-1.437a1.838 1.838 0 0 0-1.354-.56h-1.044l-.041-1.331h5.467l.005 8.505c.064.59.294 1.093.683 1.469.39.377.838.561 1.372.561h.251l-.013 2.163h-.834a3.638 3.638 0 0 1-2.115-.644c-.505-.351-.889-.765-1.142-1.234-.887.748-1.78 1.33-2.658 1.732a7.368 7.368 0 0 1-3.086.669z"/><path fill="#333" d="M163.494 23.535l.005 8.255c.072.678.324 1.229.759 1.648.435.421.949.631 1.545.631l-.01 1.663h-.585c-.74 0-1.397-.2-1.972-.6-.577-.4-.976-.878-1.199-1.433-.958.843-1.909 1.479-2.848 1.909a7.064 7.064 0 0 1-2.982.648c-1.458 0-2.608-.438-3.449-1.311-.841-.872-1.33-1.955-1.465-3.249a31.647 31.647 0 0 0-.036-.339 2.524 2.524 0 0 0-.005-.339l-.032-4.406-.013-.122a.524.524 0 0 0 .014-.154 2.104 2.104 0 0 0-.733-1.4 2.202 2.202 0 0 0-1.507-.571h-.8l-.026-.831h4.959l.031 6.745c.009.083.01.196.005.34l.033.309c.12 1.149.521 2.068 1.198 2.756.678.688 1.521 1.031 2.526 1.031.821 0 1.64-.169 2.457-.508a8.532 8.532 0 0 0 2.326-1.463l-.077-.739.018-5.392c-.068-.656-.315-1.194-.739-1.615a2.096 2.096 0 0 0-1.53-.633h-.801l-.025-.831h4.958m.5-.499h-5.975l.016.515.025.831.015.485h1.286c.461 0 .847.16 1.178.488.337.335.531.757.591 1.287l-.018 5.364v.027l.003.027.049.476a7.888 7.888 0 0 1-1.992 1.212 5.895 5.895 0 0 1-2.266.47c-.876 0-1.586-.289-2.17-.882-.594-.603-.95-1.43-1.058-2.457l-.029-.275a3.1 3.1 0 0 0-.006-.348l-.031-6.722-.002-.498h-5.973l.016.516.025.831.015.484H148.978c.453 0 .837.146 1.176.446.337.297.522.649.567 1.078l-.017.078.002.076.012.122.029 4.358c.01.114.009.204.005.317l-.001.036.004.036.035.337c.147 1.402.687 2.594 1.603 3.545.937.971 2.218 1.463 3.809 1.463a7.586 7.586 0 0 0 3.19-.694c.824-.378 1.659-.909 2.489-1.582.264.398.62.753 1.064 1.062a3.88 3.88 0 0 0 2.257.689H166.284l.003-.497.01-1.663.003-.503h-.503a1.65 1.65 0 0 1-1.198-.49c-.345-.333-.543-.764-.606-1.316l-.005-8.228.006-.501z"/><path fill="#FFDA00" d="M165.553 46.893l.204-.038c.051-.01 5.13-1.004 5.13-4.407l.043-15.71c-.063-.589-.289-1.093-.669-1.47a1.838 1.838 0 0 0-1.354-.559h-1.873l-.055-1.424h3.922l.018-7.482c-.008-1.109.37-2.056 1.121-2.81s1.675-1.136 2.746-1.136h3.09l-.049 2.194h-2.494c-.553 0-1.023.194-1.435.592-.409.396-.607.855-.605 1.406l-.013 7.236h6.12l.054 1.424h-6.14l-.02 17.74c0 4.926-7.149 6.14-7.454 6.188l-.29.047v-1.791z"/><path fill="#333" d="M177.622 12.106l-.038 1.694h-2.249a2.24 2.24 0 0 0-1.609.663c-.457.442-.684.97-.681 1.586l-.013 7.485h6.13l.035.924h-6.129l-.02 17.989c0 4.771-7.244 5.942-7.244 5.942V47.1s5.334-.998 5.334-4.652l.043-15.71c-.071-.677-.319-1.228-.743-1.648a2.098 2.098 0 0 0-1.53-.631h-1.632l-.036-.924h3.912l.019-7.731c-.007-1.048.343-1.926 1.048-2.634s1.562-1.062 2.569-1.062h2.834m.511-.502h-3.345c-1.14 0-2.123.407-2.923 1.209-.801.804-1.203 1.81-1.194 2.991l-.018 7.228h-3.933l.02.519.036.924.019.481h2.113c.462 0 .848.159 1.178.486.338.335.533.767.595 1.32l-.043 15.682c0 3.204-4.877 4.153-4.926 4.162l-.408.077v2.292l.58-.094c.312-.051 7.664-1.299 7.664-6.436l.02-17.489h6.15l-.02-.519-.035-.924-.018-.481H173.535l.012-6.984c-.002-.481.171-.882.529-1.228a1.743 1.743 0 0 1 1.261-.522h2.738l.011-.489.038-1.694.009-.511z"/><path fill="#FFDA00" d="M180.015 35.982l.058-1.331h3.07l-.008-8.037c-.063-.577-.282-1.056-.667-1.438a1.835 1.835 0 0 0-1.354-.56h-1.083l.01-1.331h5.458l-.007 1.972a8.485 8.485 0 0 1 2.042-1.244 9.327 9.327 0 0 1 2.931-.728c.27-.021.635-.031 1.095-.031h.251l-.028 5.828h-1.3l.004-1.39-.02-.165.016-.142c-.05-.477-.23-.835-.552-1.103-.329-.273-.721-.405-1.198-.405-.222 0-.493.039-.805.117-.321.08-.655.186-1.001.314a7.315 7.315 0 0 0-1.416.71l-.011 5.633.025.22c.052.495.266.907.654 1.257.386.351.825.521 1.341.521h1.084l-.01 1.331h-8.579z"/><path fill="#333" d="M191.56 23.504l-.026 5.328h-.8l.003-1.139-.02-.186c.014-.062.02-.113.014-.154-.055-.532-.27-.955-.64-1.263s-.824-.463-1.358-.463c-.246 0-.534.042-.865.124-.33.082-.673.19-1.028.322a7.463 7.463 0 0 0-.956.433 4.853 4.853 0 0 0-.622.385l-.011 5.761.014.122.013.124c.058.554.304 1.027.734 1.417.431.391.934.585 1.509.585h.833l-.006.831h-8.071l.036-.831h3.081l-.008-8.287c-.07-.656-.317-1.194-.741-1.615a2.092 2.092 0 0 0-1.53-.633h-.832l.006-.831h4.959l-.008 2.279a8.102 8.102 0 0 1 2.393-1.571 9.031 9.031 0 0 1 2.852-.708 15 15 0 0 1 1.075-.03m.502-.5h-.502c-.474 0-.838.01-1.113.032a9.574 9.574 0 0 0-3.012.748 8.785 8.785 0 0 0-1.69.961l.004-1.209.002-.501H179.793l-.003.497-.006.831-.003.503h1.335a1.6 1.6 0 0 1 1.178.487c.337.335.532.757.593 1.289l.007 7.759h-3.059l-.021.478-.036.831-.023.522h9.09l.003-.497.006-.831.003-.503H187.521c-.452 0-.835-.149-1.173-.456a1.665 1.665 0 0 1-.573-1.099l-.503-.005.498-.049-.007-.068-.011-.098.011-5.47a7.14 7.14 0 0 1 1.256-.613c.341-.126.669-.229.972-.305.292-.073.542-.109.744-.109.417 0 .757.114 1.039.348.265.22.415.517.46.909l-.017.072.005.105.011.103.006.056-.003 1.111-.001.501H192.034l.002-.498.026-5.328v-.504z"/><path fill="#FFDA00" d="M201.937 36.229c-1.977 0-3.674-.503-5.043-1.495-1.387-1.005-2.176-2.329-2.345-3.935a2.048 2.048 0 0 1 .004-.288l-.028-.241a5.604 5.604 0 0 1 .744-2.746c.479-.855 1.146-1.631 1.981-2.305a9.555 9.555 0 0 1 2.902-1.582 10.431 10.431 0 0 1 3.412-.569h4.317l-.005 9.585c.062.594.285 1.077.679 1.451.387.368.836.547 1.372.547h1.091l-.057 1.331h-1.903c-.957 0-1.765-.28-2.406-.834-.534.298-1.208.55-2.007.75a11.18 11.18 0 0 1-2.708.331zm1.612-11.613c-.953 0-1.862.151-2.702.449-.839.297-1.572.707-2.177 1.218-.604.511-1.075 1.087-1.399 1.71-.321.619-.48 1.242-.472 1.854l.015.144c-.002.179-.006.235-.003.266.118 1.126.659 2.021 1.651 2.733.996.715 2.241 1.077 3.7 1.077 1.102 0 2.229-.279 3.349-.829l.018-8.291a6.448 6.448 0 0 0-1.98-.331z"/><path fill="#333" d="M207.629 23.318l-.005 9.335c.07.678.324 1.221.757 1.632a2.16 2.16 0 0 0 1.544.616h.83l-.035.831h-1.664c-.965 0-1.756-.297-2.373-.893-.539.328-1.241.601-2.101.816-.86.215-1.743.323-2.646.323-1.931 0-3.563-.481-4.897-1.447-1.333-.966-2.081-2.219-2.243-3.759a1.833 1.833 0 0 1 .005-.246l-.029-.277a5.324 5.324 0 0 1 .712-2.603c.467-.832 1.107-1.576 1.92-2.233.814-.657 1.756-1.171 2.826-1.54s2.181-.556 3.33-.556l4.069.001m-5.467 10.998c1.19 0 2.391-.308 3.599-.925l.018-8.625a6.772 6.772 0 0 0-2.229-.4c-.985 0-1.915.154-2.786.463-.871.309-1.623.729-2.254 1.263-.631.534-1.119 1.13-1.46 1.786-.342.658-.509 1.315-.5 1.972.003.042.011.113.021.216-.01.103-.012.175-.008.215.125 1.192.71 2.162 1.754 2.912 1.043.748 2.325 1.123 3.845 1.123m5.967-11.498h-4.567c-1.197 0-2.372.196-3.493.583a9.783 9.783 0 0 0-2.977 1.624c-.86.695-1.547 1.495-2.042 2.378a5.83 5.83 0 0 0-.776 2.843l.02.219.008.074c-.008.143-.006.24 0 .289.177 1.678 1 3.061 2.446 4.109 1.414 1.023 3.16 1.542 5.19 1.542.938 0 1.868-.114 2.767-.338.747-.188 1.39-.42 1.917-.693.664.521 1.481.785 2.436.785h2.143l.021-.479.035-.831.021-.521h-1.351c-.469 0-.861-.156-1.199-.478-.344-.327-.54-.751-.602-1.297l.005-9.308v-.501h-.002zm-5.967 10.998c-1.406 0-2.602-.347-3.554-1.03-.931-.668-1.438-1.505-1.549-2.558 0-.016.003-.059.009-.115l.005-.05-.005-.05c-.012-.117-.018-.167-.02-.198-.006-.542.143-1.125.445-1.707.309-.595.76-1.145 1.339-1.635.582-.491 1.288-.886 2.099-1.173a7.822 7.822 0 0 1 2.619-.434c.554 0 1.134.089 1.728.265l-.016 7.949c-1.04.488-2.082.736-3.1.736z"/><path fill="#FFDA00" d="M216.56 42.698c-.57 0-1.128-.07-1.655-.208a9.395 9.395 0 0 1-1.646-.617l-.196-.093.448-1.432.258.117c.388.176.845.326 1.357.446a6.742 6.742 0 0 0 1.534.179c.768 0 1.497-.125 2.168-.371a5.938 5.938 0 0 0 1.786-1.018 4.546 4.546 0 0 0 1.184-1.519 4.093 4.093 0 0 0 .402-1.83l-.012-.693a11.5 11.5 0 0 1-3.565.57c-1.977 0-3.673-.503-5.043-1.495-1.387-1.005-2.176-2.329-2.347-3.935a2.162 2.162 0 0 1 .006-.288l-.028-.233a5.625 5.625 0 0 1 .742-2.754c.48-.855 1.147-1.631 1.982-2.305a9.56 9.56 0 0 1 2.901-1.582 10.433 10.433 0 0 1 3.413-.569h4.316l.018 13.034c.001 1.021-.209 1.956-.624 2.778a6.03 6.03 0 0 1-1.741 2.088c-.731.559-1.594.992-2.564 1.289-.966.292-2.008.441-3.094.441zm3.675-18.082c-.953 0-1.862.151-2.701.449a6.946 6.946 0 0 0-2.179 1.218c-.605.513-1.076 1.088-1.398 1.709-.321.62-.48 1.244-.474 1.854l.015.127.007.113a1.53 1.53 0 0 0-.009.175c.119 1.119.659 2.014 1.651 2.727.996.715 2.241 1.077 3.699 1.077 1.103 0 2.229-.279 3.35-.829l.018-8.291a6.503 6.503 0 0 0-1.979-.329z"/><path fill="#333" d="M224.315 23.318l.018 12.784c.001.986-.198 1.874-.598 2.665a5.744 5.744 0 0 1-1.669 2.002c-.712.544-1.542.96-2.486 1.248-.946.287-1.952.431-3.021.431-.555 0-1.085-.067-1.592-.2s-1.041-.333-1.603-.601l.299-.955a7.58 7.58 0 0 0 1.404.462 6.965 6.965 0 0 0 1.591.186 6.5 6.5 0 0 0 2.254-.386 6.134 6.134 0 0 0 1.86-1.062 4.751 4.751 0 0 0 1.249-1.603 4.318 4.318 0 0 0 .427-1.941l-.018-1.047a9.217 9.217 0 0 1-1.781.492c-.676.125-1.351.186-2.028.186-1.932 0-3.562-.481-4.896-1.447-1.333-.966-2.081-2.219-2.244-3.759a1.896 1.896 0 0 1 .006-.246l-.029-.277a5.346 5.346 0 0 1 .712-2.603c.468-.832 1.108-1.576 1.922-2.233s1.757-1.171 2.826-1.54 2.18-.556 3.331-.556h4.066m-5.468 10.998c1.191 0 2.392-.308 3.6-.925l.018-8.625a6.767 6.767 0 0 0-2.229-.4c-.986 0-1.915.154-2.785.463-.872.309-1.623.729-2.256 1.263-.631.534-1.119 1.13-1.459 1.786-.342.658-.51 1.315-.502 1.972l.022.216a1.571 1.571 0 0 0-.009.215c.126 1.192.711 2.162 1.755 2.912 1.044.748 2.325 1.123 3.845 1.123m5.967-11.498H220.249a10.68 10.68 0 0 0-3.494.583 9.798 9.798 0 0 0-2.978 1.624c-.859.695-1.547 1.495-2.043 2.377a5.852 5.852 0 0 0-.776 2.843v.031l.003.031.024.231a2.43 2.43 0 0 0-.002.283c.179 1.684 1.002 3.067 2.449 4.115 1.413 1.023 3.159 1.542 5.189 1.542.711 0 1.424-.065 2.119-.194.427-.077.829-.172 1.202-.285l.006.356a3.842 3.842 0 0 1-.378 1.718 4.312 4.312 0 0 1-1.119 1.435 5.704 5.704 0 0 1-1.711.975 6.03 6.03 0 0 1-2.082.355 6.53 6.53 0 0 1-1.477-.172 7.108 7.108 0 0 1-1.312-.431l-.515-.233-.169.54-.299.955-.129.414.392.187c.587.28 1.156.493 1.69.633a6.777 6.777 0 0 0 1.719.216c1.111 0 2.177-.152 3.166-.452 1-.305 1.89-.752 2.645-1.329a6.267 6.267 0 0 0 1.812-2.174c.434-.858.652-1.831.651-2.891l-.018-12.784v-.499zm-5.967 10.998c-1.405 0-2.601-.347-3.554-1.03-.931-.669-1.438-1.506-1.549-2.559l.01-.12.004-.047-.005-.047-.01-.09-.012-.12c-.005-.528.146-1.112.447-1.695.308-.593.758-1.143 1.339-1.635.583-.491 1.29-.886 2.1-1.173a7.812 7.812 0 0 1 2.618-.434c.554 0 1.134.089 1.728.265l-.016 7.949c-1.04.488-2.082.736-3.1.736z"/><g><path fill="#FFDA00" d="M231.456 20.104l7.439-5.216 1.289 2.195-8.236 3.88z"/><path fill="#333" d="M238.816 15.249l1.013 1.725-7.778 3.665-.265-.461 7.03-4.929m.158-.721l-.444.311-7.03 4.929-.374.262.228.396.265.461.229.4.417-.197 7.778-3.665.495-.233-.276-.472-1.013-1.725-.275-.467z"/></g><g><path fill="#FFDA00" d="M235.771 36.352c-1.917 0-3.559-.504-4.878-1.498-1.334-1.003-2.109-2.45-2.304-4.302a6.413 6.413 0 0 1-.029-.898 6.6 6.6 0 0 1 .49-2.627 6.748 6.748 0 0 1 1.422-2.158 6.591 6.591 0 0 1 2.089-1.441 6.314 6.314 0 0 1 2.527-.513c.87 0 1.68.151 2.404.449.726.3 1.353.707 1.864 1.208.51.501.919 1.057 1.217 1.653.298.601.49 1.197.571 1.772l.03.218-10.279 2.796c.284 1.085.856 1.98 1.701 2.663.903.729 2.057 1.099 3.429 1.099.594 0 1.184-.07 1.752-.208.567-.139 1.019-.306 1.338-.496l.272-.162.491 1.575-.221.083c-.653.247-1.292.442-1.897.579a8.923 8.923 0 0 1-1.989.208zm-.94-11.273c-1.07 0-2 .405-2.843 1.237-.83.82-1.249 1.916-1.243 3.255a3.85 3.85 0 0 0 0 .152l4.865-1.651c.822-.277 1.379-.519 1.656-.719.227-.167.329-.359.32-.606-.04-.362-.298-.74-.766-1.104-.476-.375-1.145-.564-1.989-.564z"/><path fill="#333" d="M235.089 23.166c.842 0 1.611.144 2.31.431a5.549 5.549 0 0 1 1.784 1.155 5.928 5.928 0 0 1 1.168 1.586 5.57 5.57 0 0 1 .547 1.695l-10.301 2.802c.275 1.254.89 2.265 1.844 3.035.953.77 2.149 1.154 3.586 1.154.617 0 1.219-.071 1.811-.215.59-.145 1.061-.318 1.407-.524l.327 1.048c-.651.246-1.275.436-1.865.569-.592.134-1.236.2-1.935.2-1.87 0-3.446-.482-4.728-1.447-1.283-.965-2.018-2.342-2.205-4.128a6.053 6.053 0 0 1-.028-.862 6.333 6.333 0 0 1 .472-2.542 6.45 6.45 0 0 1 1.369-2.078 6.3 6.3 0 0 1 2.01-1.387 6.024 6.024 0 0 1 2.427-.492m-4.572 6.899l5.174-1.756c.854-.287 1.427-.539 1.723-.754.296-.217.436-.488.424-.817-.049-.451-.336-.883-.861-1.293-.525-.411-1.24-.616-2.145-.616-1.129 0-2.135.437-3.019 1.31s-1.323 2.017-1.317 3.434c-.004.163.003.328.021.492m4.572-7.399c-.928 0-1.812.18-2.627.534a6.844 6.844 0 0 0-2.168 1.495 7 7 0 0 0-1.474 2.237 6.87 6.87 0 0 0-.51 2.741 6.31 6.31 0 0 0 .031.906c.202 1.924 1.01 3.43 2.401 4.477 1.364 1.027 3.056 1.548 5.028 1.548.733 0 1.421-.071 2.045-.212.617-.14 1.268-.338 1.932-.589l.441-.167-.141-.45-.327-1.048-.188-.604-.545.324c-.298.177-.726.335-1.271.468a7.178 7.178 0 0 1-1.691.201c-1.313 0-2.414-.351-3.271-1.043a4.604 4.604 0 0 1-1.549-2.293l9.822-2.672.426-.116-.062-.437a6.094 6.094 0 0 0-.594-1.848 6.467 6.467 0 0 0-1.266-1.721 6.06 6.06 0 0 0-1.943-1.26c-.755-.314-1.596-.471-2.499-.471zm-4.091 6.708c.034-1.199.417-2.14 1.166-2.879.794-.784 1.666-1.166 2.667-1.166.786 0 1.404.171 1.836.51.413.322.64.643.673.953.002.083-.022.214-.223.36-.174.126-.592.349-1.586.683l-4.533 1.539z"/></g><g><path fill="#FFDA00" d="M248.562 36.507c-.838 0-1.726-.117-2.639-.346a12.666 12.666 0 0 1-2.566-.944l-.139-.069-.004-3.67h1.259l.039.792c.08.758.483 1.379 1.232 1.884.76.514 1.701.774 2.796.774 1.017 0 1.847-.195 2.467-.579.592-.365.879-.889.878-1.604-.064-.605-.286-1.051-.677-1.339-.399-.294-.979-.443-1.721-.443h-2.033c-1.337 0-2.348-.347-3.007-1.032-.647-.675-1.029-1.522-1.135-2.518l-.035-.338a3.14 3.14 0 0 0-.002-.313c-.012-1.166.477-2.125 1.45-2.87.954-.729 2.202-1.099 3.709-1.099.874 0 1.648.053 2.303.156.648.103 1.368.26 2.14.468l.438.106-.027 4.02h-1.27l.004-.806-.011-.099.017-.139c-.065-.618-.44-1.12-1.147-1.514a4.876 4.876 0 0 0-2.395-.614c-1.001 0-1.785.234-2.331.695-.538.456-.799.953-.795 1.518l.015.131-.01.224c.051.46.271.834.675 1.103.419.278 1.052.419 1.881.419h1.818c1.335 0 2.367.356 3.067 1.06.693.696 1.099 1.564 1.206 2.583.008.072.006.17-.005.294l.024.197c-.016 1.113-.517 2.043-1.487 2.797-.953.74-2.293 1.115-3.982 1.115z"/><path fill="#333" d="M248.435 23.042c.863 0 1.617.051 2.264.153.648.103 1.352.257 2.113.462l.253.062-.024 3.573h-.771l.003-.555-.012-.124a.465.465 0 0 0 .017-.122c-.074-.719-.501-1.294-1.274-1.726a5.091 5.091 0 0 0-2.517-.646c-1.067 0-1.898.252-2.492.754-.595.504-.888 1.073-.884 1.71l.016.153-.011.186c.06.575.323 1.017.786 1.325.464.308 1.137.461 2.02.461h1.818c1.272 0 2.236.329 2.891.986s1.032 1.468 1.134 2.433c.007.062.004.144-.005.247l.025.246c-.017 1.007-.481 1.864-1.393 2.572s-2.189 1.063-3.83 1.063c-.823 0-1.682-.113-2.578-.339s-1.734-.534-2.516-.925l-.004-3.266h.771l.027.555c.089.843.536 1.535 1.343 2.079.807.545 1.785.816 2.936.816 1.066 0 1.935-.205 2.599-.616.666-.41.997-1.017.996-1.817-.073-.698-.334-1.212-.778-1.54-.445-.328-1.068-.492-1.869-.492h-2.033c-1.273 0-2.215-.319-2.826-.955-.611-.637-.967-1.428-1.066-2.371a41.079 41.079 0 0 0-.036-.34 2.72 2.72 0 0 0-.001-.309c-.01-1.067.443-1.951 1.354-2.648.911-.696 2.095-1.045 3.554-1.045m0-.5c-1.562 0-2.861.387-3.86 1.149-1.04.797-1.561 1.823-1.55 3.05.007.092.005.173.001.287l-.001.036.004.036c.021.18.031.29.035.331.112 1.059.517 1.956 1.204 2.671.707.736 1.779 1.109 3.187 1.109h2.033c.688 0 1.217.133 1.572.395.325.24.514.621.575 1.164-.006.616-.247 1.05-.758 1.365-.582.36-1.367.542-2.337.542-1.044 0-1.938-.246-2.655-.731-.685-.461-1.053-1.023-1.126-1.717l-.025-.527-.023-.476H242.963l.001.5.004 3.266v.309l.276.138c.812.406 1.692.73 2.617.962a11.11 11.11 0 0 0 2.7.354c1.746 0 3.138-.393 4.137-1.168 1.033-.803 1.566-1.798 1.586-2.959v-.032l-.003-.032-.014-.129-.007-.068a1.606 1.606 0 0 0 0-.296c-.113-1.074-.543-1.993-1.276-2.73-.749-.752-1.841-1.133-3.245-1.133h-1.818c-.779 0-1.365-.127-1.743-.377-.331-.221-.51-.515-.561-.922l.008-.143.002-.038-.003-.038-.014-.131c.004-.478.235-.904.707-1.304.499-.421 1.229-.635 2.169-.635.824 0 1.568.19 2.273.583.611.341.943.764 1.015 1.292l-.013.056.001.11.012.124-.005.505-.003.502h1.771l.003-.497.024-3.573.003-.396-.385-.094-.253-.062a21.008 21.008 0 0 0-2.153-.47 15.436 15.436 0 0 0-2.341-.158z"/></g><g><path fill="#FFDA00" d="M176.988 118.655h.043v1z"/><path fill="#333" d="M176.988 119.153c.056.002.06.002 0 .002v-.002m-.989-1.035l-.011 1.035v1.002h1.982l.061-.982.017-.982-1.015-.036-1.034-.037z"/></g><g><path fill="#FFDA00" d="M176.97 119.653c-1.297-.047-8.105-.429-14.8-3.396-9.168-4.062-14.014-11.217-14.014-20.689V64.711h-11.897v-4.776h.5c10.313 0 10.771-2.707 10.771-8.338v-.263l.216-.149c5.303-3.65 4.666-11.561 4.659-11.64l-.048-.544h3.746v20.934h24.442v4.776h-24.442v29.527c0 8.438 3.657 14.704 10.871 18.624 5.424 2.947 10.934 3.393 10.989 3.396l.674.052-1.313 3.355-.354-.012z"/><path fill="#333" d="M155.603 39.501v20.934h24.442v3.776h-24.442v30.027c0 20.852 22.322 22.52 22.322 22.52l-.938 2.396c-1.2-.043-28.332-1.035-28.332-23.585V64.212h-11.897v-3.776c10.62 0 11.271-2.999 11.271-8.838 5.604-3.857 4.874-12.096 4.874-12.096h2.7m1-1.001h-4.793l.097 1.088c.006.075.601 7.71-4.444 11.184l-.433.298v.526c0 5.054 0 7.838-10.271 7.838h-1v5.776h11.897v30.357c0 9.686 4.949 16.998 14.311 21.146 6.779 3.004 13.672 3.391 14.985 3.438l.708.025.258-.66.938-2.396.493-1.259-1.349-.101c-.054-.004-5.486-.448-10.816-3.354-7.021-3.826-10.581-9.939-10.581-18.169V65.211h24.442v-5.776h-24.442V38.501z"/></g><path fill="#FFDA00" stroke="#333" stroke-miterlimit="10" d="M324.385 108.891l-30.59-58.179h-18.787l-.016 2.455h6.094c3.182 0 4.869.817 5.061 2.453.114.971-.294 2.396-1.226 4.273l-26.972 50.609h-9.225c-1.769 0-3.317-.559-4.642-1.68-1.326-1.118-2.079-2.475-2.259-4.066a16.686 16.686 0 0 1-.039-.353l.077-.353V62.774c0-6.499.053-9.688 1.636-12.063h-6.333c-1.727 2.453-1.462 5.44-1.494 12.063l-.019 12.58h-36.753l.049-24.018H181.84l.078 2.385h4.334c1.767 0 3.313.546 4.637 1.637 1.322 1.09 2.074 2.43 2.253 4.021.013.119-.003.266-.045.442l.04.353.06 39.589h-.034v1.067l-.04.352c-.02.178-.033.297-.041.354-.178 1.591-.948 2.946-2.305 4.065-1.358 1.12-2.92 1.68-4.689 1.68h-4.209v2.386h29.901v-2.386h-12.903l.045-27.507h36.658l.064 30.727H217.97v2.387h55.985v-2.387h-7.204c-1.859 0-3.367-1.115-3.367-2.489 0-.633.579-1.645.579-1.645l6.988-12.386h38.383l2.885 5.546c1.308 2.486 2.037 4.394 2.195 5.728.284 2.424-1.436 3.635-5.158 3.635h-4.366l-.118 2.456h28.126l.017-2.456h-8.53zm-50.92-19.215l17.153-30.865 16.354 30.865h-33.507z"/><g><path fill="#FFDA00" d="M75.251 132.352v-3.535h.5c7.56 0 9.612-3.666 9.632-3.703l17.182-28.77L75.48 51.751h-5.929l-.125-3.537h28.772l.126 3.537h-4.085c-2.341 0-4.076.353-5.158 1.047-1.003.645-1.411 1.625-1.246 2.996.158 1.305.815 2.947 1.953 4.879l17.184 28.776 23.014-38.528 4.797-8.477h12.899l.008 1c-.405.032-10.612 1.684-53.522 78.928-.562 1.014-.595 2.06-.624 2.982.131 1.074.604 1.914 1.441 2.523.857.623 2.182.938 3.938.938h3.742v3.535H75.251z"/><path fill="#333" d="M147.683 42.944c-.315.005-10.405.795-53.952 79.185-.628 1.133-.658 2.302-.688 3.241.151 1.252.7 2.223 1.648 2.912.948.688 2.357 1.034 4.232 1.034h3.242v2.535H75.751v-2.535c8.009 0 10.074-3.97 10.074-3.97l17.323-29.005-27.388-45.09h-5.728l-.09-2.537h27.771l.091 2.537h-3.567c-2.449 0-4.26.376-5.428 1.127-1.17.752-1.66 1.912-1.472 3.476.167 1.379.84 3.07 2.019 5.073l17.615 29.497 23.443-39.247 4.659-8.233h12.61m0-1h-13.191l-.287.507-4.659 8.233-22.573 37.79-16.756-28.06c-1.099-1.868-1.734-3.444-1.885-4.681-.186-1.546.493-2.175 1.02-2.514 1-.643 2.644-.968 4.888-.968h4.604l-.037-1.036-.091-2.537-.035-.964H68.908l.037 1.036.09 2.537.034.964h6.13l26.783 44.094-17.014 28.488-.015.025-.014.025c-.072.13-1.98 3.432-9.187 3.432h-1v4.535h28.396l.018-1v-3.535h-4.242c-1.648 0-2.874-.283-3.644-.843-.701-.511-1.105-1.215-1.234-2.151.028-.876.072-1.827.561-2.709 42.225-76.011 52.73-78.601 53.157-78.674-.023.004-.041.004-.052.004h-.011-.001l-.017-1.998z"/></g><g><path fill="#FFDA00" d="M27.122 111.831c-1.272 0-2.528-.188-3.734-.559-8.412-2.585-12.556-13.473-9.237-24.27 2.787-9.062 10.38-15.392 18.466-15.392 2.123 0 4.257.417 6.354 1.241v-10.1c0-11.176-.215-11.176-11.489-11.176h-.5v-3.92h19.14v59.635h9.801v3.502H38.97v-4.551c-3.419 3.569-7.676 5.59-11.848 5.59zm4.791-36.003c-6.088 0-11.793 5.249-13.565 12.481-2.054 8.382 1.802 16.556 8.597 18.221.81.198 1.645.299 2.479.299 3.427 0 6.896-1.706 9.546-4.688V82.145c0-3.866-2.875-5.602-4.575-6.017-.811-.199-1.646-.3-2.482-.3z"/><path fill="#333" d="M45.621 48.156v59.635h9.801v2.502H39.47v-5.351c-3.406 4.002-7.885 6.389-12.349 6.389-1.204 0-2.407-.174-3.587-.536-8.162-2.509-12.149-13.096-8.906-23.645 2.566-8.347 9.607-15.039 17.988-15.039 2.211 0 4.515.466 6.854 1.49v-10.85c0-11.469-.521-11.676-11.989-11.676v-2.92h18.14m-16.197 59.174c3.709 0 7.332-1.874 10.046-5V82.145c0-4.118-3.064-6.04-4.956-6.503a10.903 10.903 0 0 0-2.601-.314c-6.216 0-12.188 5.259-14.051 12.862-2.123 8.664 1.89 17.092 8.963 18.826.864.212 1.734.313 2.599.313m17.197-60.173h-20.14v4.92h1c10.989 0 10.989 0 10.989 10.676v9.382c-1.936-.679-3.899-1.022-5.854-1.022-8.303 0-16.093 6.475-18.944 15.745-3.399 11.06.893 22.228 9.568 24.895 1.254.385 2.56.58 3.881.58 3.963 0 7.994-1.758 11.349-4.893v3.854H56.422v-4.502h-9.801V47.156zm-17.197 59.173a9.937 9.937 0 0 1-2.361-.285c-6.526-1.599-10.218-9.502-8.23-17.616 1.718-7.01 7.219-12.099 13.08-12.1.796 0 1.591.096 2.363.285 1.558.381 4.194 1.975 4.194 5.532v19.804c-2.537 2.788-5.816 4.38-9.046 4.38z"/></g><g><path fill="#FFDA00" d="M393.84 133.394c-5.841-.001-12.534-2.814-19.895-8.364-6.771-5.105-13.35-7.694-19.551-7.694-7.319 0-11.519 3.718-11.56 3.755l-.406.368-2.456-3.273.281-.306c.762-.83 3.469-3.415 8.736-4.876a40.513 40.513 0 0 1-2.579-.798c-4.467-1.551-8.491-3.746-11.959-6.524-3.479-2.779-6.359-6.077-8.56-9.799-2.209-3.73-3.574-7.76-4.059-11.976a28.555 28.555 0 0 1-.182-3.426c.029-4.668 1.067-9.125 3.083-13.245 2.008-4.108 4.824-7.768 8.372-10.877 3.538-3.102 7.709-5.559 12.396-7.305 4.684-1.742 9.714-2.626 14.951-2.626 4.879 0 9.632.769 14.127 2.285 4.492 1.519 8.551 3.698 12.062 6.476 3.509 2.78 6.388 6.062 8.556 9.754a30.296 30.296 0 0 1 4 11.927c.134 1.158.202 2.374.202 3.614.056 4.795-.961 9.289-3.021 13.35-.201.395-.397.794-.596 1.199-1.837 3.741-3.92 7.982-11.368 12.661-4.432 2.784-10.016 4.963-15.337 6.024 4.923 1.332 10.198 3.427 15.716 6.243 4.423 2.258 8.504 3.402 12.131 3.402h.002c10.94-.002 14.391-10.196 14.532-10.63l.215-.658 2.417 1.778-.118.347c-4.277 12.556-11.239 19.194-20.132 19.194 0 0 .001 0 0 0zm-35.141-81.062c-4.134 0-8.05.716-11.637 2.129-3.584 1.409-6.721 3.38-9.324 5.857-2.601 2.476-4.622 5.333-6.008 8.492-1.384 3.16-2.098 6.474-2.119 9.85a24.295 24.295 0 0 0 .151 3.114c.425 3.691 1.614 7.215 3.535 10.475 1.926 3.264 4.442 6.163 7.481 8.615a35.547 35.547 0 0 0 10.173 5.736 33.457 33.457 0 0 0 11.506 2.037c4.065 0 7.927-.716 11.479-2.129 3.553-1.411 6.673-3.382 9.273-5.857 2.596-2.469 4.635-5.327 6.062-8.496 1.418-3.158 2.148-6.471 2.171-9.847a20.265 20.265 0 0 0-.13-2.92 27.051 27.051 0 0 0-3.553-10.622 32.056 32.056 0 0 0-7.435-8.663 34.902 34.902 0 0 0-10.118-5.734 33.48 33.48 0 0 0-11.507-2.037z"/><path fill="#333" d="M360.454 46.928c4.85 0 9.506.754 13.967 2.259 4.459 1.508 8.43 3.64 11.911 6.395 3.479 2.757 6.289 5.961 8.436 9.615 2.142 3.653 3.454 7.564 3.934 11.73a30.82 30.82 0 0 1 .199 3.557c.055 4.745-.936 9.119-2.967 13.124-2.035 4.007-3.65 8.555-11.783 13.663-5.859 3.681-12.683 5.692-17.521 6.354 5.101 1.152 11.05 3.266 17.938 6.782 4.889 2.495 8.97 3.457 12.36 3.457 11.448 0 15.008-10.976 15.008-10.976l1.564 1.151c-4.069 11.943-10.597 18.854-19.66 18.854-5.568 0-12.095-2.61-19.594-8.264-7.967-6.007-14.68-7.795-19.852-7.795-7.621 0-11.896 3.885-11.896 3.885l-1.877-2.503c.824-.898 4.055-3.949 10.496-5.2a41.414 41.414 0 0 1-4.543-1.284c-4.431-1.538-8.368-3.685-11.811-6.442-3.448-2.755-6.262-5.976-8.441-9.663-2.182-3.684-3.514-7.61-3.992-11.778a27.597 27.597 0 0 1-.179-3.365c.029-4.615 1.04-8.957 3.032-13.028 1.989-4.07 4.741-7.644 8.252-10.721s7.592-5.48 12.241-7.212c4.652-1.731 9.577-2.595 14.778-2.595m2.004 62.209c4.147 0 8.034-.721 11.663-2.164 3.629-1.441 6.773-3.428 9.434-5.96 2.661-2.531 4.716-5.417 6.173-8.653 1.453-3.237 2.191-6.588 2.215-10.049a20.618 20.618 0 0 0-.133-2.98 27.407 27.407 0 0 0-3.618-10.817 32.396 32.396 0 0 0-7.55-8.798 35.226 35.226 0 0 0-10.264-5.816 33.816 33.816 0 0 0-11.679-2.067c-4.216 0-8.155.721-11.82 2.164-3.665 1.441-6.826 3.43-9.485 5.96-2.66 2.533-4.701 5.418-6.121 8.653-1.418 3.237-2.139 6.587-2.161 10.048a24.583 24.583 0 0 0 .154 3.174c.436 3.782 1.638 7.34 3.602 10.672 1.967 3.334 4.498 6.249 7.598 8.75a35.885 35.885 0 0 0 10.316 5.817 33.845 33.845 0 0 0 11.676 2.066m-2.004-63.209c-5.298 0-10.387.894-15.125 2.658-4.745 1.767-8.968 4.255-12.552 7.397-3.597 3.153-6.454 6.865-8.491 11.034-2.049 4.188-3.104 8.717-3.134 13.461a28.74 28.74 0 0 0 .186 3.486c.492 4.286 1.88 8.381 4.125 12.173 2.23 3.774 5.15 7.117 8.678 9.935 3.512 2.813 7.585 5.036 12.106 6.605.338.117.68.231 1.025.341-4.365 1.531-6.683 3.755-7.388 4.523l-.561.611.498.664 1.877 2.503.659.88.813-.739c.038-.034 4.117-3.625 11.223-3.625 6.09 0 12.566 2.555 19.25 7.594 7.449 5.616 14.244 8.465 20.195 8.465 9.127 0 16.253-6.754 20.606-19.531l.236-.693-.59-.435-1.564-1.151-1.116-.821-.428 1.318c-.138.419-3.494 10.284-14.057 10.284-3.548 0-7.554-1.126-11.905-3.348-4.85-2.476-9.514-4.396-13.922-5.737 4.779-1.176 9.632-3.181 13.582-5.662 7.568-4.754 9.684-9.062 11.55-12.863.198-.403.394-.801.593-1.193 2.097-4.134 3.132-8.706 3.075-13.588 0-1.247-.069-2.482-.206-3.66a30.795 30.795 0 0 0-4.064-12.121c-2.2-3.747-5.119-7.075-8.677-9.893-3.557-2.814-7.665-5.021-12.212-6.558-4.545-1.536-9.351-2.314-14.285-2.314zm2.004 62.209a32.95 32.95 0 0 1-11.334-2.007 35.025 35.025 0 0 1-10.031-5.656c-2.991-2.414-5.47-5.267-7.364-8.479-1.885-3.199-3.053-6.657-3.47-10.278a23.784 23.784 0 0 1-.147-3.044c.021-3.316.721-6.564 2.077-9.662 1.359-3.097 3.343-5.9 5.895-8.331 2.556-2.432 5.639-4.368 9.162-5.753 3.529-1.39 7.383-2.095 11.454-2.095 3.87 0 7.685.675 11.336 2.007s7.007 3.233 9.975 5.652a31.533 31.533 0 0 1 7.318 8.527 26.535 26.535 0 0 1 3.488 10.427c.111.971.154 1.925.126 2.835-.022 3.33-.738 6.575-2.127 9.669-1.399 3.108-3.401 5.914-5.95 8.338-2.554 2.432-5.62 4.368-9.113 5.755-3.493 1.391-7.293 2.095-11.295 2.095z"/></g><g><path fill="#FFDA00" d="M61.391 73.468c-1.308 0-1.557-2.248-1.594-2.699l-1.128-18.421h5.522l-1.207 18.414c-.02.444-.196 2.706-1.593 2.706z"/><path fill="#333" d="M63.658 52.848l-1.172 17.881s-.104 2.239-1.095 2.239c-.913 0-1.095-2.239-1.095-2.239l-1.095-17.881h4.457m1.068-1h-6.588l.065 1.061 1.095 17.881c.062.761.391 3.178 2.093 3.178 1.434 0 2.021-1.649 2.094-3.193l1.171-17.862.07-1.065z"/></g></svg>